<svg width="307" height="307" viewBox="0 0 307 307" fill="none" xmlns="http://www.w3.org/2000/svg">
<path d="M20.3174 188.135C20.3235 187.273 21.4598 187.178 22.4093 187.088C27.2454 186.63 28.2669 186.54 28.6206 186.549C29.8703 186.578 30.296 188.036 29.0234 188.642C27.0571 189.579 20.3097 189.494 20.3174 188.135Z" fill="#191919"/>
<path d="M10.7953 178.29C11.293 179.361 12.0158 180.929 13.9117 183.42C14.9729 184.815 13.4982 185.785 12.414 185.076C10.6376 183.916 9.02652 180.745 9.24092 178.454C9.50891 175.586 10.2042 177.017 10.7953 178.29Z" fill="#191919"/>
<path d="M25.0932 154.007C23.4056 155.671 21.0717 156.674 19.1774 158.016C18.6644 158.38 18.0441 158.619 17.5081 158.056C15.8328 156.298 20.8022 153.356 24.3014 152.763C26.0166 152.472 25.2463 153.855 25.0932 154.007Z" fill="#191919"/>
<path d="M37.2528 186.504C33.1854 186.485 39.092 182.841 41.5744 181.573C42.6771 181.01 46.2743 182.878 37.2528 186.504Z" fill="#191919"/>
<path d="M13.4305 163.847C13.1549 164.754 12.3065 166.122 11.5056 168.866C11.2958 169.581 11.187 170.38 10.1671 170.282C8.34476 170.106 9.09668 166.135 11.8563 162.941C13.6388 160.876 13.72 162.901 13.4321 163.847H13.4305Z" fill="#191919"/>
<path d="M134.332 120.625C135.518 119.017 138.991 117.977 140.551 117.467C143.302 116.569 144.361 120.634 135.119 121.961C134.531 122.045 133.825 121.313 134.334 120.624L134.332 120.625Z" fill="#191919"/>
<path d="M121.475 127.749C120.733 125.826 125.398 123.618 127.366 123.002C128.628 122.607 129.404 124.187 128.158 124.809C126.001 125.889 123.836 126.956 121.475 127.749Z" fill="#191919"/>
<path d="M114.853 129.533C115.925 128.93 116.967 130.411 116.189 131.141C109.094 137.795 107.774 133.515 114.853 129.533Z" fill="#191919"/>
<path d="M243.904 124.993C243.787 126.745 241.674 129.869 239.876 117.221C239.761 116.409 240.5 116.098 240.983 116.762C241.61 117.619 243.305 121.54 243.904 124.991V124.993Z" fill="#191919"/>
<path d="M218.75 163.783C216.216 165.27 212.15 166.924 210.68 166.4C209.375 165.936 209.624 164.705 210.52 164.425C212.954 163.662 215.974 162.389 218.536 162.172C219.611 162.082 220.142 162.967 218.75 163.783Z" fill="#191919"/>
<path d="M176.577 168.984C174.626 168.831 172.648 169.034 172.732 167.42C172.838 165.383 178.048 166.06 179.91 166.639C180.925 166.955 181.666 168.137 180.32 168.67C179.213 169.108 178.032 168.956 176.577 168.984Z" fill="#191919"/>
<path d="M197.672 168.91C187.183 171.95 185.248 164.406 197.378 167.128C199.81 167.673 200.205 168.177 197.672 168.91Z" fill="#191919"/>
<path d="M236.563 152.589C234.866 155.801 229.377 159.612 228.514 158.106C227.834 156.922 229.449 155.924 235.273 152.224C235.651 151.984 237.653 150.529 236.563 152.59V152.589Z" fill="#191919"/>
<path d="M244.01 135.742C244.034 142.06 239.887 144.711 239.798 141.873C239.739 139.955 243.988 130.293 244.01 135.742Z" fill="#191919"/>
<path d="M235.841 112.826C235.526 113.389 234.691 113.178 234.195 112.881C228.688 109.589 227.985 109.89 228.298 108.95C229.002 106.821 236.705 111.282 235.841 112.824V112.826Z" fill="#191919"/>
<path d="M219.385 108.008C217.683 107.899 216.616 108.083 216.542 106.994C216.401 104.909 223.019 105.33 223.028 106.838C223.035 108.124 220.634 107.909 219.386 108.01L219.385 108.008Z" fill="#191919"/>
<path d="M38.8681 148.105C36.2187 147.586 31.3703 148.462 31.9768 150.224C32.1636 150.768 32.6276 151.025 33.136 150.932C35.2341 150.544 37.6093 150.227 39.0733 149.831L38.8681 148.105Z" fill="#191919"/>
<path d="M158.768 107.299C159.157 82.9958 177.16 76.0861 182.324 95.2011C184.958 104.951 182.872 118.665 175.357 124.318C167.916 129.915 158.518 122.832 158.768 107.299ZM177.296 116.661C185.892 98.3665 173.739 78.1612 165.334 93.1367C155.06 111.443 169.611 133.017 177.296 116.659V116.661Z" fill="#060606"/>
<path d="M140.056 109.688C120.463 109.794 123.376 107.382 127.901 99.3617C137.489 82.3739 137.152 82.6618 138.258 81.7812C139.869 80.4994 140.497 82.5821 139.773 84.2713C138.022 88.357 129.517 104.204 129.494 104.245C128.973 105.183 129.148 105.434 130.236 105.461C147.843 105.884 147.371 107.398 147.728 104.189C148.354 98.5654 147.728 95.7491 149.492 95.5898C150.339 95.5133 151.139 96.3372 151.227 97.6159C151.969 108.218 149.796 123.905 149.512 124.377C148.609 125.878 147.195 125.377 146.717 124.152C146.448 123.457 146.511 123.659 147.05 111.833C147.171 109.175 147.707 109.647 140.053 109.688H140.056Z" fill="#060606"/>
<path d="M199.768 105.042C207.851 104.76 202.553 104.7 207.854 104.915C209.545 104.983 209.301 105.317 210.093 96.8823C210.442 93.1702 213.55 94.0155 213.36 96.9252C212.164 115.333 212.324 121.872 211.502 123.72C210.867 125.149 209.211 125.164 208.614 123.622C207.842 121.631 208.73 110.13 208.87 109.308C209.252 107.055 207.274 109.535 190.317 107.841C187.046 107.515 185.874 106.025 187.311 103.069C191.762 93.9099 199.084 82.3754 200.069 81.0982C200.456 80.5959 200.735 79.7199 201.597 80.1748C203.9 81.3892 200.324 85.4428 190.778 103.417C190.269 104.375 190.433 104.657 191.482 104.669C194.249 104.697 196.992 105.138 199.767 105.04H199.768V105.042Z" fill="#060606"/>
<path d="M169.645 161.866C170.485 164.641 169.684 166.321 167.107 167.341C160.029 170.14 157.139 164.801 155.965 164.296C153.343 163.167 154.664 158.389 157.413 159.197C159.154 159.708 160.603 158.733 162.205 158.726C162.831 158.725 162.808 158.304 162.802 157.838C162.672 147.157 168.53 145.536 171.073 151.019C171.995 150.899 172.766 150.356 173.726 150.443C178.223 150.849 178.643 157.595 169.643 161.869L169.645 161.866ZM164.173 156.634C164.173 158.011 163.977 158.835 165.237 159.143C166.064 159.345 166.822 159.642 167.35 158.792C168.352 157.183 169.351 155.563 169.715 153.651C170.098 151.636 168.813 148.922 166.922 149.719C164.393 150.785 164.416 154.048 164.173 156.634ZM175.231 154.071C175.282 151.569 171.704 151.345 171.283 153.316C170.433 157.302 167.406 159.569 168.176 160.449C169.205 161.624 175.17 157.088 175.231 154.071ZM166.05 166.063C166.116 165.826 166.102 165.523 166.075 165.204C165.9 163.172 166.821 162.19 166.952 161.607C167.05 161.174 166.109 160.68 165.741 160.829C164.625 161.281 163.675 165.112 164.205 166.206C164.462 166.736 165.893 166.631 166.05 166.063ZM160.02 165.465C160.185 163.823 160.799 161.925 161.211 160.301C159.635 160.791 158.274 161.699 158.029 162.517C157.715 163.569 158.857 164.956 160.02 165.465Z" fill="#191919"/>
<path d="M65.2298 180.089C61.5943 193.792 60.8317 194.655 61.1211 194.655C61.4641 194.655 71.6265 197.609 75.3034 198.716C79.7521 200.053 79.5546 200.001 80.383 199.411C84.1993 196.694 89.0492 195.318 94.0156 195.526C100.81 195.809 102.719 193.266 114.66 189.72C123.423 187.119 136.872 185.099 144.566 186.132C144.529 184.235 142.089 181.586 140.233 180.215C138.149 178.674 134.555 181.308 122.935 183.16C122.51 183.226 122.323 182.665 122.677 182.454C127.203 179.737 132.137 178.682 137.241 177.359C115.688 149.285 89.6312 110.654 85.9757 107.239C85.187 109.565 84.818 112.094 84.1809 114.513C84.0645 114.958 85.4918 115.402 86.4367 115.697C87.916 116.157 89.4443 116.636 89.1365 117.749C88.818 118.91 87.6235 118.588 85.818 118.1C84.2912 117.686 83.8287 117.541 83.6204 117.668C82.9282 118.086 82.3157 121.763 79.7353 131.928C79.3095 133.598 79.5423 132.985 97.5332 138.922C101.521 140.242 99.0493 138.916 101.281 134.916C101.927 133.757 103.279 134.196 103.305 135.44C103.438 141.716 99.9681 139.533 107.614 142.656C108.904 143.183 108.585 144.782 106.993 144.578C105.738 144.411 104.508 144.096 103.328 143.641C102.83 143.457 102.36 143.288 102.222 143.365C101.844 143.579 101.882 145.469 99.3969 155.731C98.8257 158.085 98.867 159.368 99.5209 159.583C123.225 167.393 123.908 167.142 123.435 168.578C123.101 169.589 121.957 169.24 121.408 169.073C119.706 168.563 118.034 168.137 116.418 167.725C108.738 165.772 112.829 166.788 98.6159 162.077C98.3892 162.002 98.0784 161.895 98.0217 161.93C97.7399 162.082 97.1871 164.847 94.5454 173.918C93.5822 177.227 93.0983 178.889 93.3081 179.259C93.3632 179.354 93.573 179.416 93.8869 179.497C104.737 182.318 116.748 186.895 116.931 187.008C117.873 187.589 117.199 189.062 114.855 188.673C109.666 187.811 99.2254 184.5 94.7675 183.086C93.6725 182.739 92.8808 182.489 92.6006 182.653C92.3157 182.82 92.1473 183.658 91.9329 184.717C91.0278 189.198 89.6526 194.713 88.2345 195.532C88.127 195.599 88.0063 195.642 87.8806 195.657C87.755 195.672 87.6275 195.66 87.5071 195.621C86.7215 195.359 87.3923 191.036 89.5178 182.648C89.697 181.936 89.4596 181.488 88.8057 181.301C81.8963 179.331 74.9836 177.372 68.0675 175.425C66.5346 174.99 66.6678 174.661 65.2298 180.086V180.089Z" fill="#060606"/>
<path d="M82.9801 108.587C83.9801 104.771 84.0858 104.371 83.1455 103.117C61.7779 74.5608 62.3644 74.4995 60.7626 74.0493C49.6706 70.9222 47.8222 70.132 47.2403 70.452C47.0826 70.5408 47.006 70.815 46.8712 71.3295C43.9646 82.4444 43.8559 82.3449 45.0902 82.7476C62.6753 88.4812 62.5053 88.4705 62.7335 88.3388C62.9494 88.2101 63.1224 86.7293 63.5589 84.9789C64.5084 81.1764 66.8407 82.1703 66.2787 85.2821C65.5283 89.4276 65.1301 89.2944 66.3598 89.7277C73.3384 92.178 74.3859 91.9176 73.9004 93.4475C73.464 94.8212 73.1378 94.4674 65.0643 92.1336C64.1301 93.7798 62.6064 102.065 61.9494 104.637C61.5497 106.21 62.0964 107.255 63.591 107.768C69.0658 109.656 74.539 111.549 80.0107 113.446C80.7626 113.706 81.3446 113.91 81.51 113.82C81.7504 113.69 81.8591 112.858 82.9786 108.587H82.9801Z" fill="#060606"/>
<path d="M41.4132 142.426C41.2724 142.984 41.3642 143.486 41.4592 144.014C45.159 164.625 43.2708 166.08 45.2601 166.526C51.5572 167.941 50.8941 167.823 64.2464 171.337C65.006 171.538 65.8697 170.02 66.8391 166.786C70.9739 153.023 71.5389 153.164 70.2572 152.728C50.839 146.074 50.9477 145.677 50.5971 146.768C50.2019 147.996 49.0197 150.435 47.8482 149.843C46.8313 149.325 47.6399 148.377 48.401 145.99C48.7808 144.803 48.6307 145.059 41.4132 142.426Z" fill="#060606"/>
<path d="M71.9347 158.834C68.4186 170.446 67.5595 171.592 67.9117 172.2C68.2777 172.829 71.5963 172.8 77.1981 174.668C83.6852 176.831 88.3712 178.214 90.4723 178.59C90.7679 178.054 90.5428 178.451 93.186 167.967C94.3759 163.238 94.6668 160.771 94.0558 160.566C94.0558 160.566 76.9133 154.771 74.6484 154.1C73.4646 153.749 73.4692 153.76 71.9347 158.834Z" fill="#060606"/>
<path d="M85.4486 137.768C83.6676 137.163 79.3292 135.584 78.7595 135.89C78.4991 136.028 78.6278 136.512 75.6921 146.34C74.7518 149.488 74.6906 151.2 75.5068 151.477C91.8346 157.068 94.8116 158.362 95.611 157.945C96.2098 157.636 98.0429 148.394 99.3063 143.299C99.4747 142.619 99.3124 142.342 98.6095 142.118C92.6141 140.201 88.4716 138.795 85.4471 137.769L85.4486 137.768Z" fill="#060606"/>
<path d="M80.8215 116.814C80.8828 116.598 80.895 116.607 75.7541 114.89C59.8597 109.585 60.8291 109.392 60.5274 110.653C58.581 118.703 58.1415 119.876 56.9163 124.915C56.5993 126.216 56.3926 126.129 59.3635 126.951C69.2992 129.711 76.2319 132.403 76.8735 132.036C77.1584 131.878 76.6301 131.713 80.8215 116.814Z" fill="#060606"/>
<path d="M55.0959 219.158C56.5232 218.431 56.9382 216.782 61.0393 211.475C68.8326 201.387 74.315 206.844 77.3058 201.999C75.9643 201.518 65.6121 198.716 62.7453 197.88C60.0975 197.108 60.0807 197.155 59.8724 197.74C54.5186 212.803 58.6396 202.111 54.2843 213.72C53.5002 215.814 51.6779 215.523 52.2062 213.417C55.1756 201.595 57.2552 196.857 57.0653 196.512C56.8739 196.169 55.39 195.803 52.4359 195.074C49.5615 194.365 47.9642 193.933 47.7835 193.933C47.6181 193.933 47.5523 194.279 48.3394 199.736C50.2797 213.2 50.9244 214.423 49.5768 216.523C48.5079 218.186 49.5446 220.564 50.7851 221.826C52.0576 220.743 53.4956 219.975 55.0959 219.158Z" fill="#060606"/>
<path d="M75.9387 134.962C75.6554 134.42 74.8239 134.252 73.9433 134.071C71.1944 133.51 56.7334 128.34 55.8544 128.817C55.761 128.869 55.7074 129.052 55.6369 129.328C52.3444 142.095 52.4026 140.584 51.6431 143.359C51.5619 143.653 51.5297 143.676 60.5681 146.582C70.8958 149.906 71.5987 150.207 71.7565 150.128C71.9188 150.046 76.075 135.977 75.9372 134.962H75.9387Z" fill="#060606"/>
<path d="M43.3705 104.187C40.8651 103.375 39.225 102.732 38.8865 102.925C38.6614 103.052 38.7395 103.495 37.7319 106.933C37.398 108.074 37.1086 109.062 36.9248 110.219C38.1683 120.288 37.5772 120.55 40.0504 121.065C57.3736 124.667 52.3521 131.866 57.7518 109.959C58.124 108.449 57.9555 108.922 43.372 104.189L43.3705 104.187Z" fill="#060606"/>
<path d="M48.0286 191.293C57.9521 193.791 57.9598 194.172 58.2354 193.312C64.018 175.068 64.3365 174.792 64.2186 174.572C64.0486 174.258 62.6183 173.887 60.0226 173.212C50.5049 170.737 45.168 169.037 44.6519 169.295C44.6595 169.318 44.6718 169.532 44.681 169.684C44.3916 169.726 43.9919 169.788 44.681 169.684C47.2308 188.511 46.5799 190.929 48.0286 191.293Z" fill="#060606"/>
<path d="M46.6311 54.7397C41.9373 49.1991 42.5514 47.9373 32.6035 38.3431C32.0185 37.7795 31.3554 37.1823 30.8362 37.1823C30.5345 37.1823 30.2941 37.3997 30.1073 37.6401C27.9204 40.4395 29.5759 42.6677 30.2328 46.654C32.9526 63.1808 31.4335 63.0706 33.1839 63.5376C41.3707 65.723 44.3998 66.8194 44.9129 66.504C45.0813 66.4014 45.1701 65.6571 45.6142 63.4029C46.6663 58.0629 47.0063 55.1747 46.6341 54.7397H46.6311Z" fill="#060606"/>
<path d="M58.8708 105.179C58.9611 104.85 62.1097 91.7874 62.1296 91.6985C62.8096 91.8501 62.4053 91.7598 62.1296 91.6985C62.2399 91.2085 62.0423 91.089 61.2246 90.8149C42.5461 84.5607 43.664 84.432 43.2275 86.1043C39.5522 100.167 39.1004 100.017 40.4481 100.437C42.2245 100.994 58.3807 106.066 58.5599 106.011C58.6334 105.953 58.759 105.541 58.8693 105.178L58.8708 105.179Z" fill="#060606"/>
<path d="M38.5572 122.869L40.7241 139.089C40.7946 139.625 42.0182 140.288 44.3934 141.077C48.7303 142.516 48.8559 142.634 49.0136 142.546C49.6078 142.213 50.3092 138.376 53.0672 128.457C53.3459 127.457 53.0151 127.706 38.5557 122.867H38.5572V122.869Z" fill="#060606"/>
<path d="M32.5206 66.0261C32.5145 68.4289 32.4609 66.2298 33.6569 78.5821C33.7518 79.5622 33.8636 79.1946 41.0673 81.455C41.9479 81.7352 41.5298 82.1257 44.3016 70.1272C44.5666 68.9817 44.3813 69.337 32.519 66.0261H32.5206Z" fill="#060606"/>
<path d="M34.0713 81.8348C35.7803 94.7323 35.4924 100.363 36.0805 103.083C36.6624 101.786 37.8186 97.1182 39.6027 89.939C41.1479 83.7292 41.1846 84.0768 40.739 83.9283C38.3806 83.1381 36.2872 82.3907 34.0713 81.8348Z" fill="#060606"/>
<path d="M48.6547 67.7459C57.6945 70.3079 58.3515 70.5974 58.8354 70.6004C56.0759 66.7612 51.18 60.2481 49.7956 59.0858C47.9763 67.4978 47.6562 67.4626 48.6532 67.7444L48.6547 67.7459Z" fill="#060606"/>
<path d="M40.4169 251.499C44.2928 251.237 49.4659 252.837 50.9896 256.41C52.0279 258.842 55.8396 264.503 49.351 267.879C45.1274 270.076 40.3908 269.891 36.0049 268.041C31.7231 266.235 28.8425 268.369 24.1917 268.033C17.2575 267.534 14.3356 261.13 19.4137 258.163C22.0217 256.64 25.2101 256.626 28.4719 255.927C32.7017 255.022 30.0003 251.499 40.4169 251.499ZM50.6589 262.009C48.5363 254.067 45.2683 253.301 38.1167 253.715C31.6465 254.087 33.6986 257.231 28.5163 258.166C22.9114 259.179 22.1381 259.174 20.6756 260.009C17.2636 261.957 20.0906 265.324 23.769 265.578C28.9666 265.937 32.3311 263.488 37.8855 266.139C42.279 268.235 51.7722 266.176 50.6589 262.009Z" fill="#060606"/>
<path d="M275.625 239.756C283.422 240.053 289.143 239.834 294.679 242.233C300.826 244.897 290.524 255.211 274.415 252.667C268.183 251.684 266.058 254.22 262.616 253.987C259.833 253.799 257.515 250.305 260.137 248.249C261.84 246.913 263.844 246.656 264.862 246.272C268.671 244.835 261.653 239.223 275.625 239.756ZM279.199 241.869C272.59 241.869 272.124 241.771 270.431 242.177C266.294 243.166 270.325 245.578 266.651 247.72C264.982 248.693 263.572 248.528 261.856 249.577C260.173 250.606 261.91 252.042 263.31 251.82C266.469 251.316 268.353 249.621 275.47 250.479C283.55 251.452 288.881 249.567 293.547 246.004C294.513 245.266 294.498 244.41 293.477 244.007C286.391 241.209 287.391 242.319 279.199 241.872V241.869Z" fill="#060606"/>
<path d="M161.506 247.543C166.461 248.126 166.576 248.505 171.259 248.255C177.484 247.923 182.916 249.194 180.895 255.123C179.931 257.949 177.455 259.641 174.288 259.319C172.225 259.11 170.545 259.543 169.091 261.015C165.123 265.03 159.21 261.1 157.328 257.341C156.551 255.788 155.746 254.319 153.85 253.78C152.965 253.529 152.778 252.633 153.127 251.6C154.299 248.134 158.27 247.915 161.506 247.543ZM173.325 257.041C174.645 257.041 175.757 257.146 176.809 256.655C178.081 256.06 179.302 253.996 179.006 252.69C178.256 249.379 169.953 251.054 166.607 250.485C163.235 249.91 158.882 249.067 155.913 251.253C154.247 252.48 156.971 251.841 158.95 255.918C159.812 257.694 161.118 259.021 162.908 259.884C168.219 262.451 167.602 256.333 173.328 257.041H173.325Z" fill="#060606"/>
<path d="M262.446 239.407C262.111 237.917 260.928 237.25 259.703 236.958C255.824 236.036 252.195 234.304 248.178 233.785C242.781 233.088 237.503 227.25 237.097 222.959C235.784 209.105 188.09 185.676 164.36 210.22C159.648 200.872 153.073 194.08 148.877 191.345C143.576 187.889 138.22 189.03 131.321 189.935C125.476 190.705 119.043 191.422 102.669 197.38C95.2202 200.093 94.6107 196.44 84.969 199.939C77.5004 202.651 80.4682 208.387 72.5463 207.76C63.9138 207.073 61.7086 219.95 55.6749 221.929C48.8372 224.174 47.8417 235.851 42.5416 237.884C38.7697 239.328 36.7146 240.181 35.4267 242.215C33.5492 245.177 36.9229 247.901 40.2215 248.103C44.4175 248.361 47.3272 246.875 50.4574 246.989C58.1864 247.263 48.0056 255.811 58.5983 256.626C68.7086 257.404 70.508 250.057 80.9246 251.038C96.2753 252.485 87.1788 252.848 83.3794 259.884C81.2538 263.82 84.943 266.215 88.7546 266.551C98.1911 267.378 107.84 268.79 116.958 264.136C120.464 262.342 120.522 258.782 117.569 257.329C116.308 256.708 114.586 256.468 114.744 253.67C115.007 249.038 132.908 250.973 142.551 249.566C147.147 248.894 151.568 243.913 146.551 242.255C144.767 241.668 135.424 242.551 133.71 238.145C136.954 238.365 139.937 238.056 142.81 237.057C147.132 235.558 151.378 236.615 155.657 237.186C154.732 246.091 167.707 243.44 188.351 243.65C198.107 243.751 207.894 246.126 217.368 241.29C221.063 239.404 226.172 240.835 230.248 242.35C238.668 245.477 247.181 244.218 256.098 242.734C262.325 241.696 262.942 241.607 262.448 239.408L262.446 239.407ZM141.513 243.99C144.815 244.194 145.553 243.874 146.53 244.678C142.887 250.183 129.213 245.952 116.628 249.08C112.425 250.125 111.467 254.497 113.641 257.695C114.735 259.298 117.331 258.84 117.349 260.358C117.38 262.849 106.661 265.86 97.3197 264.748C92.528 264.177 82.701 265.123 85.5448 260.5C86.5819 258.823 87.9058 257.342 89.456 256.123C91.5142 254.483 92.0885 250.321 89.6061 249.921C82.531 248.785 77.7331 247.295 71.1711 250.309C66.0195 252.672 63.3931 255.267 57.6764 254.12C54.7177 253.525 55.8755 252.163 56.0332 249.267C56.2813 244.763 51.5569 244.339 47.0852 245.053C43.6044 245.609 40.2292 246.785 37.7559 245.062C35.808 243.71 37.6365 242.076 39.7437 240.998C43.7039 238.97 46.4221 238.875 49.4604 233.333C50.6212 231.217 52.3456 225.253 57.2139 223.506C62.8877 221.472 65.6152 209.16 72.4422 209.981C75.5203 210.35 79.5387 208.976 81.2829 205.538C82.8373 202.481 87.7531 200.933 91.1222 200.561C97.4775 199.858 104.464 204.094 113.292 209.829C119.801 214.057 122.242 218.57 123.7 222.946C127.168 233.358 127.324 243.111 141.511 243.989L141.513 243.99ZM152.115 234.445C141.661 232.78 139.533 237.615 132.298 235.71C129.596 234.998 127.813 230.491 127.427 227.773C124.551 207.35 101.439 201.867 100.582 200.347C101.58 199.053 139.727 187.152 147.698 192.881C154.38 197.685 163.776 210.293 162.83 213.335C161.743 216.831 162.452 220.367 159.211 223.979C156.383 227.131 160.152 229.266 157.977 233.662C157.207 235.214 156.328 235.113 152.113 234.443L152.115 234.445ZM230.732 240.22C226.247 238.708 220.826 237.031 216.596 239.221C208.259 243.534 199.325 241.658 189.766 241.365C164.008 240.578 163.753 243.171 158.386 239.887C155.305 238.007 162.447 235.191 160.459 228.06C159.412 224.304 163.66 225.23 164.188 217.471C164.845 207.849 178.478 203.206 187.337 202.2C206.349 200.04 234.702 213.439 235.245 222.866C235.538 227.929 241.576 233.99 246.212 235.206C250.899 236.434 249.421 235.502 253.406 236.751C259.99 238.815 260.094 238.431 260.497 239.543C259.388 240.038 242.314 244.119 230.732 240.22Z" fill="#060606"/>
<path d="M98.3945 235.434C96.9351 237.477 94.782 237.926 92.3915 237.157C88.4527 235.883 89.3501 241.148 83.5599 240.07C80.9182 239.578 80.6563 237.923 79.3026 235.658C76.4894 230.936 73.4542 246.309 66.01 240.107C62.2168 236.949 63.6134 232.685 62.5292 228.077C62.2275 226.806 63.6348 226.342 64.2489 227.564C65.0667 229.208 64.9181 230.347 65.3393 233.88C65.8676 238.322 69.3791 241.09 72.1463 237.926C74.2474 235.52 74.6379 234.178 76.9167 233.171C80.0652 231.782 80.8952 234.762 81.9029 236.584C83.2276 238.981 86.468 238.737 87.494 237.272C88.9963 235.125 91.0025 234.82 93.3486 235.616C94.8999 236.145 96.4757 235.903 98.3961 235.433L98.3945 235.434Z" fill="#060606"/>
<path d="M176.383 221.767C175.87 222.479 175.14 223.028 174.396 222.563C172.157 221.171 179.187 213.221 179.409 216.825C179.449 217.457 179.4 217.571 176.383 221.765V221.767Z" fill="#060606"/>
<path d="M210.944 222.313C210.167 221.981 210.009 220.584 211.643 220.27C220.172 221.293 220.506 226.402 210.944 222.313Z" fill="#060606"/>
<path d="M213.647 236.329C213.297 237.26 212.295 236.933 207.54 235.996C206.81 235.852 206.023 235.355 206.182 234.567C206.579 232.61 214.378 234.385 213.647 236.329Z" fill="#060606"/>
<path d="M172.477 236.35C168.782 236.258 174.218 231.788 177.43 230.981C180.261 230.272 175.549 235.476 172.477 236.35Z" fill="#060606"/>
<path d="M203.918 211.891C196.592 215.234 193.358 210.431 203.54 210.01C204.728 209.961 205.275 211.275 203.918 211.891Z" fill="#060606"/>
<path d="M230.545 229.134C228.194 228.517 225.148 223.131 227.98 223.051C228.447 223.036 228.831 223.214 229.064 223.613C230.462 226.034 233.104 229.809 230.545 229.134Z" fill="#060606"/>
<path d="M194.088 230.224C194.085 231.662 192.58 231.549 191.877 230.396C189.486 226.469 189.101 226.044 190.009 225.309C191.673 223.96 193.428 228.175 194.088 230.224Z" fill="#060606"/>
<path d="M188.641 210.186C186.183 210.061 181.385 207.691 182.82 205.765C183.168 205.295 183.715 205.206 184.127 205.466C185.911 206.584 187.715 207.717 188.64 210.188L188.641 210.186Z" fill="#060606"/>
<path d="M144.26 198.572C146.636 203.742 139.579 211.841 132.654 205.417C131.02 203.901 130.308 201.685 128.997 199.906C128.502 199.235 129.469 197.648 131.265 200.35C132.917 202.837 133.032 203.324 134.055 204.224C138.239 207.904 142.173 205.085 143.309 200.531C143.483 199.834 143.709 199.143 144.26 198.572Z" fill="#060606"/>
</svg>