<svg width="307" height="307" viewBox="0 0 307 307" fill="none" xmlns="http://www.w3.org/2000/svg">
<path d="M87.7083 171.39C89.0483 173.209 111.259 176.86 113.721 177.124C112.753 174.712 109.11 163.035 107.776 161.701C106.442 160.367 92.4389 154.566 87.7144 151.296C87.4908 154.999 86.3591 169.566 87.7083 171.39Z" fill="#080808"/>
<path d="M141.811 117.767C138.864 120.314 134.435 124.659 134.431 125.936C134.418 129.631 142.394 137.198 143.483 137.639C144.572 138.08 149.114 136.434 153.624 133.215C149.76 130.591 142.524 122.744 141.811 117.767Z" fill="#080808"/>
<path d="M44.9254 97.4099C43.9864 90.9793 44.136 84.4366 45.368 78.0557C41.4521 78.0557 34.504 78.1567 33.6985 79.143C32.04 81.1706 32.7551 92.7313 33.282 93.7834C33.8088 94.8355 39.423 96.8417 44.9254 97.4099Z" fill="#080808"/>
<path d="M91.4078 102.54C91.9591 100.221 92.564 97.742 93.2455 95.4954C93.5013 94.6455 94.3175 94.6486 94.0955 95.6899C91.9664 105.253 90.425 114.938 89.4797 124.689C91.4155 125.122 95.0082 126.081 96.4523 126.515C96.7908 122.548 97.218 118.769 97.7173 115.168C96.0189 105.826 95.267 90.2335 96.5702 82.2164C80.9497 83.3037 51.6182 81.0188 46.3026 80.6023C45.567 85.4866 45.4754 90.4464 46.03 95.3545C50.0638 95.6685 78.0813 99.4144 91.4078 102.54Z" fill="#080808"/>
<path d="M154.669 175.696C153.574 174.096 142.685 146.261 141.777 139.806C141.148 140.91 138.714 145.564 136.249 146.422C133.783 147.279 129.97 145.114 126.965 141.198C123.961 137.282 125.817 133.037 126.752 130.905C127.5 129.207 132.096 127.279 132.927 126.931C132.812 126.27 132.838 125.591 133.004 124.94C133.488 123.455 136.783 120.116 138.168 119.098C137.887 117.484 137.497 113.874 137.318 111.455C135.619 110.791 133.396 110.144 131.875 109.67C131.416 109.525 131.243 108.843 132.223 108.983C137.247 110.293 142.187 111.907 147.016 113.814C147.767 112.911 148.578 112.06 149.445 111.268C150.134 110.775 150.807 111.066 150.049 111.811C149.56 112.291 144.716 118.681 143.95 119.565C144.537 121.815 150.321 128.32 153.242 130.665C154.314 129.867 169.9 118.72 167.426 110.528C164.678 101.434 140.932 88.6286 136.587 86.8843C128.57 97.2291 121.981 110.775 117.123 126.801C116.228 142.768 117.606 158.781 121.216 174.359C122.125 178.248 156.347 178.15 154.669 175.696Z" fill="#080808"/>
<path d="M105.726 76.6882C105.43 75.4814 100.317 78.166 98.2526 80.578C96.1882 82.99 97.5313 105.266 98.3889 110.524C101.505 91.0668 106.127 78.3176 105.726 76.6882Z" fill="#080808"/>
<path d="M135.059 84.2118C133.667 81.3573 129.845 78.6405 129.284 79.3113C124.231 85.3635 119.229 101.096 117.514 121.181C121.845 109.096 125.871 98.3622 133.921 88.1017C135.168 86.5136 136.012 86.1644 135.059 84.2118Z" fill="#080808"/>
<path d="M285.67 230.67C284.708 233.153 283.351 235.465 281.653 237.516C281.333 237.908 281.432 239.225 282.8 238.128C284.753 236.125 286.208 233.69 287.047 231.021C287.347 230.053 286.324 229.303 285.67 230.67Z" fill="#080808"/>
<path d="M202.391 238.678C179.932 256.49 155.293 255.064 138.169 229.777C137.334 228.544 136.581 229.022 135.901 230.024C116.431 258.694 76.1488 262.113 55.2203 234.637C54.6506 233.889 53.5189 233.981 52.7149 235.709C47.3549 247.208 36.7589 253.104 24.5688 253.764C24.3713 253.776 24.1864 253.865 24.0538 254.012C23.9211 254.159 23.8512 254.351 23.859 254.549C23.8668 254.747 23.9517 254.933 24.0956 255.069C24.2394 255.205 24.4307 255.279 24.6285 255.276C34.0897 255.879 50.8465 247.675 54.3535 236.091C76.1197 265.051 118.049 259.345 137.259 231.14C152.605 254.528 177.013 260.734 203.375 239.819C204.015 239.309 203.097 238.119 202.391 238.678Z" fill="#080808"/>
<path d="M276.42 244.199C273.086 247.819 268.971 249.762 263.886 251.358C263.709 251.416 263.561 251.538 263.47 251.699C263.378 251.86 263.35 252.049 263.39 252.23C263.43 252.411 263.536 252.571 263.688 252.678C263.839 252.785 264.025 252.832 264.209 252.81C268.05 252.403 275.443 248.419 277.61 245.167C278.624 243.651 277.39 243.147 276.42 244.199Z" fill="#080808"/>
<path d="M254.635 253.778C236.189 255.91 224.91 249.073 216.181 241.526C216.065 241.453 215.927 241.422 215.791 241.44C215.654 241.458 215.529 241.523 215.436 241.624C215.343 241.725 215.288 241.855 215.281 241.993C215.274 242.13 215.316 242.265 215.399 242.375C223.471 252.588 241.396 258.554 254.856 255.029C255.824 255.014 255.585 253.452 254.635 253.778Z" fill="#080808"/>
<path d="M109.853 59.4043C110.225 59.7106 110.865 59.3017 110.557 58.8361C109.202 56.7901 107.603 54.4302 108.061 51.8038C108.573 48.8681 111.574 48.6475 114.167 50.3015C116.355 51.6966 118.031 53.6982 120.599 54.4532C123.167 55.2082 126.101 55.2893 128.634 56.5604C130.226 57.3583 129.797 58.2756 128.558 59.9571C127.932 60.7919 127.182 61.5254 126.333 62.1318C122.392 62.4197 113.712 62.7168 110.069 60.7382C103.86 67.8716 122.807 66.3095 126.8 63.4947C127.607 62.729 128.5 62.0445 129.219 61.2114C131.958 58.0459 131.607 56.3613 128.048 54.9938C124.489 53.6262 121.016 53.9417 118.34 52.1147C116.973 51.1805 115.793 49.9814 114.366 49.1422C112.032 47.7716 108.498 47.6399 107.266 50.5434C106.777 52.111 106.762 53.7881 107.222 55.3644C107.682 56.9407 108.597 58.3461 109.853 59.4043Z" fill="#030303"/>
<path d="M113.997 54.8438C113.42 52.1945 110.695 52.7381 112.4 56.8347C112.919 58.0889 114.634 57.7658 113.997 54.8438Z" fill="#030303"/>
<path d="M118.066 68.6878C119.06 69.066 119.226 67.0507 118.483 66.8271C117.935 66.6632 117.287 68.3907 118.066 68.6878Z" fill="#030303"/>
<path d="M114.816 66.4887C114.214 67.6044 113.883 68.8461 113.849 70.1136C114.035 70.8533 117.091 70.6771 116.158 69.8931C115.826 69.6143 114.74 69.9788 114.689 69.7491C114.857 68.7506 115.107 67.7677 115.437 66.8103C115.605 66.3218 115.083 66.0783 114.816 66.4887Z" fill="#030303"/>
<path d="M112.518 68.2284C113.366 68.3616 113.461 66.6066 112.755 66.53C112.212 66.5392 111.84 68.1227 112.518 68.2284Z" fill="#030303"/>
<path d="M123.373 86.3007C126.196 83.7647 126.465 78.7967 126.159 74.7691C129.778 72.9681 130.405 67.1242 127.246 66.7934C127.28 66.052 127.234 65.3091 127.11 64.5774C125.955 65.2227 124.71 65.6919 123.416 65.9695C123.547 67.3204 123.336 68.6827 122.8 69.93C122.265 71.1772 121.423 72.2691 120.353 73.1044C119.067 71.9011 117.418 71.1581 115.664 70.9919C113.911 70.8256 112.152 71.2454 110.662 72.1855C110.7 70.2817 110.91 68.3852 111.29 66.5192C111.371 66.1119 110.218 64.4028 109.719 69.916C109.633 70.867 104.676 80.4828 106.671 84.4553C109.166 89.3927 118.923 90.3023 123.373 86.3007ZM127.202 67.9236C129.137 68.4443 128.366 72.3739 126.038 73.4704C125.878 72.0678 125.654 70.6733 125.367 69.2911C125.725 68.8409 126.532 67.7536 127.196 67.9312L127.202 67.9236ZM115.612 74.2499C116.457 74.2946 117.302 74.1851 118.108 73.9268C118.906 73.5194 119.269 74.1105 118.711 74.6925C118.29 75.1381 117.114 75.1795 115.696 75.0233C114.635 74.9145 114.509 74.2744 115.612 74.2499Z" fill="#030303"/>
<path d="M23.1668 88.1185C23.4532 87.7005 23.2526 86.9041 22.5221 87.2273C21.7916 87.5504 20.1821 88.555 19.8559 88.0772C19.3566 87.3498 20.0764 85.4263 19.1591 85.4738C18.3934 85.5151 18.4899 87.1124 18.5052 87.9608C18.5526 90.6331 22.5221 89.065 23.1668 88.1185Z" fill="#030303"/>
<path d="M31.1598 90.1233C29.5212 90.3821 27.1429 91.6853 26.4966 91.7037C25.8504 91.7221 23.3526 89.7389 19.2024 90.4464C19.0725 90.4806 18.9597 90.5616 18.8858 90.6738C18.8119 90.786 18.782 90.9216 18.8019 91.0545C18.8219 91.1874 18.8902 91.3083 18.9938 91.3939C19.0974 91.4795 19.2289 91.5238 19.3632 91.5184C25.3848 91.2887 24.2546 94.1218 28.2807 92.6899C29.4032 92.3741 30.4925 91.9505 31.5335 91.425C32.1185 91.0574 32.0098 89.99 31.1598 90.1233Z" fill="#030303"/>
<path d="M24.2648 87.7512C24.179 88.3117 24.9861 88.3806 25.1836 87.9211C25.3611 87.3435 25.3364 86.7226 25.1137 86.1608C24.891 85.5991 24.4835 85.1299 23.9585 84.8307C21.715 83.3835 12.4835 82.5887 10.2844 81.5688C13.5203 81.679 16.8695 82.0282 20.0518 82.0619C23.6093 82.1063 27.2021 81.6454 30.7259 82.3161C30.8078 82.3377 30.8932 82.343 30.9772 82.3316C31.0612 82.3202 31.1421 82.2924 31.2154 82.2498C31.2886 82.2071 31.3527 82.1504 31.4041 82.083C31.4554 82.0155 31.4929 81.9386 31.5146 81.8567C31.5362 81.7747 31.5415 81.6893 31.5301 81.6053C31.5187 81.5214 31.4909 81.4404 31.4482 81.3672C31.4055 81.294 31.3489 81.2298 31.2814 81.1785C31.214 81.1272 31.1371 81.0896 31.0551 81.068C28.5298 80.4034 22.568 80.9654 19.3458 80.8551C16.1865 80.7479 12.8495 80.2043 9.70702 80.3957C7.60897 80.5198 7.93363 81.9716 9.57073 82.6546C12.1221 83.7266 18.453 84.6133 21.4607 85.2029C22.8268 85.454 24.5282 86.0038 24.2648 87.7512Z" fill="#030303"/>
<path d="M133.207 140.585C132.948 139.466 131.348 140.654 131.993 143.023C132.132 143.685 132.528 144.263 133.094 144.632C133.66 145.001 134.35 145.13 135.011 144.991C136.333 144.468 137.437 143.51 138.141 142.276C138.269 141.843 137.939 141.592 137.529 141.723C136.61 142.013 135.212 144.02 134.252 143.778C132.605 143.366 133.333 141.131 133.207 140.585Z" fill="#030303"/>
<path d="M127.67 131.942C126.807 133.32 125.781 136.738 126.864 138.167C126.934 138.26 127.032 138.329 127.143 138.365C127.254 138.4 127.373 138.4 127.484 138.364C127.595 138.329 127.692 138.26 127.762 138.166C127.832 138.073 127.872 137.961 127.875 137.844C127.633 136.912 127.65 135.931 127.925 135.008C129.103 130.414 131.322 131.535 133.76 128.977C133.848 128.896 133.905 128.787 133.921 128.669C133.936 128.55 133.91 128.43 133.846 128.329C133.783 128.228 133.685 128.153 133.572 128.116C133.458 128.079 133.335 128.084 133.224 128.129C131.105 128.958 129.205 130.263 127.67 131.942Z" fill="#030303"/>
<path d="M135.619 142.048C137.093 139.239 137.062 142.648 140.436 139.272C142.981 136.722 141.183 136.538 140.851 136.821C140.26 137.317 138.982 139.363 137.684 139.607C137.105 139.716 136.33 139.426 135.552 140.082C135.286 140.304 135.072 140.582 134.925 140.896C134.778 141.21 134.702 141.553 134.702 141.899C134.719 142.001 134.767 142.094 134.84 142.167C134.912 142.239 135.006 142.287 135.107 142.304C135.209 142.32 135.313 142.304 135.405 142.258C135.497 142.213 135.572 142.139 135.619 142.048Z" fill="#030303"/>
<path d="M129.364 136.961C128.148 136.348 127.726 140.827 129.219 140.357C129.865 140.155 129.548 139.399 129.499 139.132C129.32 138.092 129.871 137.216 129.364 136.961Z" fill="#030303"/>
<path d="M129.964 140.647C129.956 142.846 131.466 143.195 131.305 141.904C131.149 141.015 131.184 140.103 131.408 139.229C131.581 138.518 129.976 138.268 129.964 140.647Z" fill="#030303"/>
<path d="M77.2657 174.525C77.3699 172.171 77.6486 164.002 77.8431 160.469C81.9366 160.316 82.053 160.258 82.5063 157.845C82.7414 156.616 82.8578 155.367 82.8539 154.115C82.8447 152.774 81.52 152.843 81.4358 153.904C81.3516 154.965 81.3179 158.613 80.6379 158.652C76.1622 158.869 71.6763 158.745 67.2196 158.278C65.8612 158.143 66.0725 154.728 65.8857 153.428C65.6989 152.128 64.731 151.896 64.4752 153.301C64.3713 154.322 64.4115 155.353 64.5947 156.364C65.2226 160.07 65.1889 159.812 69.6055 160.11C69.6055 165.068 70.434 177.046 70.6775 178.92C70.7863 179.772 71.8583 179.608 71.8399 178.759C71.7311 173.332 71.212 166.189 70.8889 160.229C72.747 160.382 74.6072 160.47 76.4694 160.492C76.2994 162.734 76.0789 172.145 76.01 174.421C75.9242 177.242 77.1493 177.165 77.2657 174.525Z" fill="#030303"/>
<path d="M225.033 210.559C228.495 211.085 236.073 211.556 236.787 211.561C238.349 211.57 239.223 210.183 236.787 210.04C233.347 209.852 228.175 209.344 224.841 208.968C223.835 208.858 223.944 210.394 225.033 210.559Z" fill="#030303"/>
<path d="M189.565 206.5C192.967 207.582 206.932 208.889 210.457 209.149C211.529 209.229 211.809 207.572 210.72 207.451C204.521 206.758 195.446 205.818 189.761 205.251C189.124 205.187 188.971 206.31 189.565 206.5Z" fill="#030303"/>
<path d="M249.932 210.193C249.084 210.181 249.084 211.524 249.932 211.68C257.106 212.07 264.296 212.013 271.463 211.51C270.838 222.868 267.553 226.038 269.13 226.384C269.253 226.411 269.382 226.398 269.498 226.348C269.613 226.297 269.709 226.21 269.772 226.1C271.649 223.468 273.141 213.728 273.109 210.593C273.109 209.803 272.26 209.837 272.201 209.837C265.675 209.959 256.458 210.287 249.932 210.193Z" fill="#030303"/>
<path d="M192.612 228.183C158.974 223.676 125.66 217.913 93.6299 206.264C91.9265 205.662 90.3101 204.839 88.8227 203.813C88.6924 203.707 88.5256 203.655 88.3578 203.669C88.1899 203.684 88.0342 203.763 87.9237 203.89C87.8132 204.017 87.7564 204.182 87.7656 204.35C87.7748 204.518 87.8491 204.676 87.9728 204.791C90.4231 206.97 93.6544 207.993 96.6606 209.121C127.19 220.584 159.95 226.58 192.281 229.826C193.378 229.947 193.67 228.336 192.612 228.183Z" fill="#030303"/>
<path d="M122.329 233.761C120.194 233.222 117.995 232.929 115.84 232.496C109.274 231.051 102.803 229.21 96.4598 226.983C95.815 226.78 95.3342 227.825 95.9758 228.104C104.886 231.972 119.059 235.148 122.117 235.272C122.309 235.283 122.498 235.221 122.647 235.099C122.795 234.977 122.892 234.804 122.919 234.614C122.945 234.423 122.9 234.23 122.79 234.072C122.681 233.914 122.516 233.803 122.329 233.761Z" fill="#030303"/>
<path d="M79.568 177.952C107.144 191.839 147.663 200.083 177.506 205.495C178.593 205.692 178.847 203.988 177.762 203.797C142.814 197.605 112.753 191.518 80.5787 176.196C78.9386 175.415 78.8298 175.899 77.4454 177.324C70.1099 184.877 58.1387 188.153 48.0941 190.853C47.3375 191.057 47.042 191.243 47.1262 192.493C47.9225 204.314 55.2428 231.293 62.4972 240.995C62.9305 241.572 64.0837 240.954 63.7453 240.315C57.2658 228.087 52.0513 214.556 48.5841 192.297C58.1479 190.752 70.9721 185.978 78.0457 179.108C78.7257 197.035 84.1332 233.399 93.2069 247.635C93.7521 248.49 94.8915 248.009 94.38 247.067C85.709 231.093 80.7395 199.951 79.568 177.952Z" fill="#030303"/>
<path d="M225.456 231.104C222.059 231.104 215.205 230.656 209.796 230.254C209.116 230.203 209.048 231.326 209.702 231.434C214.951 232.269 220.263 232.636 225.576 232.529C227.02 232.402 227.257 231.104 225.456 231.104Z" fill="#030303"/>
<path d="M75.7878 203.366C69.6314 206.476 63.0492 208.66 56.2545 209.846C55.5653 209.968 55.6603 211.103 56.3647 211.071C63.4481 210.412 70.3142 208.273 76.5183 204.792C76.6388 204.664 76.7168 204.502 76.7416 204.329C76.7663 204.155 76.7366 203.978 76.6565 203.821C76.5765 203.665 76.45 203.537 76.2944 203.456C76.1389 203.374 75.9619 203.343 75.7878 203.366Z" fill="#030303"/>
<path d="M265.559 235.197C264.018 239.39 262.076 243.197 260.464 247.295C260.223 247.908 261.102 248.528 261.491 247.923C263.692 244.073 265.537 240.031 267.005 235.846C267.361 234.877 265.916 234.228 265.559 235.197Z" fill="#030303"/>
<path d="M77.7077 226.857C73.263 228.886 68.5677 230.314 63.7457 231.103C63.5818 231.153 63.4416 231.261 63.3512 231.406C63.2609 231.551 63.2266 231.725 63.2547 231.894C63.2828 232.062 63.3715 232.215 63.5042 232.324C63.6368 232.432 63.8043 232.488 63.9754 232.482C69.0291 231.802 73.9478 230.347 78.5577 228.168C79.478 227.751 78.625 226.431 77.7077 226.857Z" fill="#030303"/>
<path d="M298.92 257.28C279.677 240.411 252.873 216.809 233.195 200.642C232.533 200.098 231.741 201.271 232.345 201.789C252.111 218.72 276.892 240.488 297.737 258.511C298.554 259.213 299.752 258.008 298.92 257.28Z" fill="#030303"/>
<path d="M169.429 186.465C168.921 185.819 167.977 186.772 168.411 187.366C182.991 207.106 205.718 237.392 220.615 257.294C221.423 258.366 223.525 258.213 222.364 256.681C207.294 236.591 185.23 206.487 169.429 186.465Z" fill="#030303"/>
<path d="M206.394 194.864C205.818 194.268 204.804 195.273 205.366 195.875C224.431 216.298 245.323 238.395 264.068 258.891C265.625 260.594 266.659 259.138 265.996 258.381C248.439 238.344 225.969 215.093 206.394 194.864Z" fill="#030303"/>
<path d="M119.069 100.615C119.496 98.6887 120.007 96.7818 120.601 94.9C114.809 95.0271 106.962 93.828 103.386 91.563C102.835 93.6026 102.404 95.6725 102.095 97.7622C107.494 99.8785 113.274 100.85 119.069 100.615Z" fill="#030303"/>
<path d="M116.757 113.81C116.98 111.649 117.323 109.501 117.785 107.378C112.03 107.333 106.321 106.356 100.879 104.485C100.325 106.631 99.9952 108.828 99.8945 111.041C103.415 112.893 110.541 114.217 116.757 113.81Z" fill="#030303"/>
<path d="M116.087 120.536C110.146 120.684 104.229 119.743 98.6283 117.76C98.348 119.848 97.9652 122.447 97.7783 124.256C101.821 126.227 109.864 127.653 115.613 127.729C115.734 125.104 115.969 122.582 116.087 120.536Z" fill="#030303"/>
<path d="M83.6019 152.103C85.1089 151.135 84.7474 146.005 84.5866 144.46C84.4856 143.475 85.236 143.705 85.4366 144.46C85.7509 145.627 85.8801 146.836 85.8194 148.043C92.766 153.674 107.52 158.691 109.387 161.284C111.359 164.025 116.103 179.764 120.427 189.531C124.044 191.23 139.68 194.839 142.245 195.323C142.245 191.62 141.522 181.785 141.132 178.992C137.641 178.779 122.295 178.099 120.529 175.687C119.349 174.082 115.122 154.532 115.492 134.766C110.661 133.322 82.5667 121.203 72.2556 124.473C62.8878 127.442 61.3442 136.724 63.4315 149.823C64.0104 153.449 82.5789 152.76 83.6019 152.103Z" fill="#030303"/>
<path d="M167.181 153.895C166.91 153.615 165.482 153.742 165.72 153.047C166.353 151.902 167.101 150.824 167.953 149.831C168.123 149.38 167.816 149.284 167.493 149.406C166.302 150.437 165.346 151.711 164.691 153.143C164.263 154.797 168.09 154.837 167.181 153.895Z" fill="#030303"/>
<path d="M165.465 156.918C166.187 157.497 168.427 157.837 169.141 157.123C169.64 156.619 169.285 155.898 168.75 156.163C167.452 156.8 167.052 156.409 165.651 156.163C165.236 156.163 164.955 156.512 165.465 156.918Z" fill="#030303"/>
<path d="M171.443 148.18C171.697 148.329 171.903 148.547 172.039 148.808C172.174 149.07 172.233 149.364 172.209 149.658C172.209 150.506 173.32 150.652 173.253 149.327C173.274 148.838 173.151 148.353 172.899 147.933C172.647 147.513 172.277 147.177 171.835 146.965C171.687 146.952 171.539 146.989 171.415 147.071C171.291 147.153 171.198 147.274 171.153 147.416C171.107 147.557 171.111 147.71 171.164 147.849C171.216 147.988 171.315 148.104 171.443 148.18Z" fill="#030303"/>
<path d="M165.352 149.53C165.803 149.683 166.723 148.955 166.516 148.316C166.126 147.138 164.495 149.224 165.352 149.53Z" fill="#030303"/>
<path d="M168.089 146.328C168.21 146.401 168.356 146.424 168.494 146.393C168.632 146.362 168.753 146.278 168.832 146.16C168.911 146.042 168.941 145.898 168.917 145.759C168.892 145.619 168.815 145.494 168.701 145.409C167.75 144.561 165.756 145.501 166.154 146.114C166.459 146.59 167.138 145.852 168.089 146.328Z" fill="#030303"/>
<path d="M170.44 150.057C169.711 149.359 168.449 151.668 169.498 151.645C169.922 151.635 170.849 150.446 170.44 150.057Z" fill="#030303"/>
<path d="M171.01 162.685C171.46 162.459 171.375 161.54 170.823 161.649C167.802 162.244 162.126 162.863 162.433 157.59C162.923 152.777 164.416 148.119 166.814 143.916C167.12 143.414 166.313 143.062 165.966 143.535C163.309 147.766 161.626 152.535 161.039 157.497C160.396 163.805 168.528 163.937 171.01 162.685Z" fill="#030303"/>
<path d="M166.287 181.709C165.277 180.358 162.041 184.511 163.086 187.834C163.108 187.968 163.181 188.087 163.288 188.169C163.395 188.251 163.529 188.29 163.663 188.277C163.798 188.264 163.922 188.201 164.012 188.1C164.102 187.999 164.15 187.868 164.147 187.733C163.833 183.159 167.146 182.853 166.287 181.709Z" fill="#030303"/>
<path d="M164.004 179.654C161.302 178.94 159.69 185.536 161.455 185.462C162.433 185.423 161.54 181.989 164.004 180.902C164.132 180.856 164.243 180.771 164.322 180.659C164.401 180.547 164.443 180.414 164.443 180.278C164.443 180.141 164.401 180.008 164.322 179.896C164.243 179.785 164.132 179.7 164.004 179.654Z" fill="#030303"/>
<path d="M168.174 185.234C169.168 184.683 168.316 183.856 167.477 184.061C165.088 184.628 164.375 190.233 167.477 189.871C167.586 189.856 167.686 189.803 167.761 189.723C167.837 189.643 167.883 189.54 167.891 189.43C167.9 189.321 167.872 189.211 167.81 189.12C167.749 189.029 167.659 188.961 167.554 188.928C166.004 188.444 166.917 185.931 168.174 185.234Z" fill="#030303"/>
<path d="M172.55 177.395C171.217 176.452 169.732 175.745 168.16 175.306C167.14 174.994 166.063 174.918 165.01 175.084C163.957 175.25 162.955 175.653 162.081 176.264C161.207 176.875 160.483 177.676 159.965 178.608C159.446 179.539 159.147 180.577 159.089 181.642C159.077 182.176 159.993 182.488 160.143 181.913C160.812 179.358 163.205 175.43 168.006 176.818C169.706 177.309 171.048 178.262 171.964 178.465C172.102 178.511 172.251 178.508 172.387 178.454C172.522 178.401 172.634 178.303 172.704 178.175C172.774 178.048 172.797 177.9 172.769 177.757C172.741 177.615 172.663 177.486 172.55 177.395Z" fill="#030303"/>
<path d="M190.9 183.56C188.569 181.288 179.01 177.776 175.043 176.902C173.971 176.664 172.71 176.782 173.939 178.168C177.016 181.631 177.632 184.883 174.789 188.861C174.256 189.603 175.175 190.222 175.774 189.565C177.088 188.083 177.854 186.195 177.946 184.217C178.037 182.238 177.447 180.288 176.275 178.692C181.179 180.139 185.945 182.018 190.517 184.306C191.13 184.595 191.3 183.951 190.9 183.56Z" fill="#030303"/>
<path d="M152.605 166.355C155.946 164.961 159.544 164.287 163.163 164.376C163.557 166.097 164.515 167.637 165.884 168.753C167.253 169.868 168.955 170.494 170.72 170.532C174.814 170.773 178.364 168.486 181.252 165.777C192.292 169.555 201.821 183.357 202.17 192.614C202.364 197.778 201.38 201.778 195.528 201.803C189.676 201.827 183.941 198.27 180.241 195.781C179.763 195.461 179.065 196.178 179.554 196.631C183.021 199.847 191.231 203.792 196.292 203.369C201.226 202.954 203.199 199.666 203.631 194.757C204.611 183.606 194.332 170.898 185.633 166.145C184.053 165.281 181.632 163.466 179.987 164.828C177.436 166.94 174.448 169.177 171.017 169.074C167.144 168.96 165.301 166.941 164.138 163.512C163.902 162.816 163.052 162.937 162.301 162.926C159.379 162.887 154.325 163.733 152.109 165.431C152.007 165.507 151.936 165.617 151.908 165.741C151.881 165.865 151.898 165.995 151.959 166.107C152.019 166.219 152.117 166.306 152.236 166.351C152.354 166.396 152.486 166.398 152.605 166.355Z" fill="#030303"/>
<path d="M199.222 155.747C200.921 155.852 200.641 155.102 200.225 154.981C199.808 154.86 199.315 155.1 199.153 154.777C198.99 154.454 200.483 151.973 200.722 151.627C201.102 151.08 200.499 149.998 198.499 153.979C197.972 155.025 198.067 155.675 199.222 155.747Z" fill="#030303"/>
<path d="M198.347 149.19C198.798 149.066 199.275 149.066 199.726 149.19C199.828 149.199 199.931 149.178 200.022 149.13C200.113 149.082 200.188 149.01 200.24 148.921C200.291 148.832 200.317 148.73 200.313 148.627C200.309 148.525 200.275 148.425 200.217 148.34C199.819 147.559 198.579 147.881 198.128 148.426C197.764 148.863 197.906 149.368 198.347 149.19Z" fill="#030303"/>
<path d="M197.819 152.443C198.456 152.742 198.866 151.595 198.762 151.169C198.445 149.858 197.03 152.071 197.819 152.443Z" fill="#030303"/>
<path d="M204.25 150.558C205.356 151.385 205.143 148.844 203.309 148.4C202.528 148.324 202.044 149.25 202.909 149.598C203.774 149.945 203.803 150.224 204.25 150.558Z" fill="#030303"/>
<path d="M200.233 158.88C201.084 159.053 202.931 159.217 203.782 158.151C204.375 157.41 203.834 156.451 202.934 157.454C202.084 158.302 200.275 158.048 200.098 158.116C199.622 158.296 199.716 158.776 200.233 158.88Z" fill="#030303"/>
<path d="M207.579 161.26C207.834 160.598 206.949 160.232 206.534 160.716C203.284 164.508 198.352 163.353 197.192 160.045C195.878 156.296 197.246 150.515 198.169 146.763C198.197 146.647 198.181 146.524 198.124 146.419C198.067 146.314 197.973 146.233 197.86 146.193C197.747 146.153 197.623 146.156 197.512 146.202C197.402 146.247 197.312 146.332 197.26 146.44C195.718 149.949 194.548 158.284 196.548 161.727C198.891 165.773 206.116 165.041 207.579 161.26Z" fill="#030303"/>
<path d="M202.815 152.01C202.697 151.509 201.575 151.33 201.678 153.047C201.733 153.972 203.158 153.469 202.815 152.01Z" fill="#030303"/>
<path d="M215.155 163.806C214.203 163.347 213.94 163.143 213.082 164.019C207.984 169.226 201.415 170.816 200.428 165.181C200.343 164.69 199.427 164.664 199.427 165.181C199.427 170.872 207.07 172.731 214.101 164.647C219.039 167.188 223.2 171.014 226.144 175.723C229.089 180.431 230.708 185.847 230.832 191.4C230.985 197.871 230.167 203.859 222.067 202.44C219.848 201.895 217.673 201.183 215.562 200.308C215.407 200.24 215.231 200.237 215.073 200.299C214.915 200.361 214.789 200.483 214.721 200.639C214.654 200.794 214.65 200.97 214.712 201.127C214.774 201.285 214.897 201.412 215.052 201.479C218.491 203.317 223.07 204.878 226.942 203.705C230.813 202.531 232.02 198.303 232.216 194.66C232.916 181.689 227.097 169.655 215.155 163.806Z" fill="#030303"/>
<path d="M221.058 188.24C217.441 184.638 207.224 180.439 202.858 180.384C202.733 180.391 202.615 180.443 202.524 180.529C202.434 180.615 202.377 180.731 202.363 180.856C202.35 180.98 202.381 181.105 202.452 181.209C202.522 181.312 202.627 181.387 202.748 181.421C209.081 182.772 215.102 185.304 220.497 188.885C220.991 189.2 221.404 188.69 221.058 188.24Z" fill="#030303"/>
<path d="M189.345 166.805C189.265 166.911 189.226 167.042 189.234 167.175C189.243 167.307 189.298 167.433 189.389 167.528C189.481 167.624 189.604 167.684 189.736 167.698C189.868 167.711 190.001 167.678 190.11 167.603C195.57 163.289 197.709 165.367 197.699 163.981C197.698 163.898 197.68 163.817 197.644 163.742C197.609 163.667 197.558 163.601 197.495 163.548C197.431 163.495 197.357 163.456 197.277 163.435C197.198 163.413 197.114 163.41 197.033 163.424C194.133 163.531 191.384 164.741 189.345 166.805Z" fill="#030303"/>
<path d="M235.741 168.901C234.731 168.534 234.655 168.473 233.694 169.165C232.855 169.711 231.903 170.06 230.91 170.186C229.917 170.311 228.909 170.211 227.96 169.891C227.012 169.572 226.148 169.042 225.433 168.341C224.719 167.64 224.172 166.787 223.834 165.845C223.418 164.638 223.334 164.367 222.373 164.393C221.392 164.359 220.415 164.542 219.511 164.927C218.968 165.292 219.231 165.777 219.842 165.777C220.743 165.701 221.65 165.701 222.551 165.777C222.895 167.024 223.536 168.169 224.419 169.113C225.302 170.058 226.401 170.775 227.621 171.202C228.842 171.629 230.148 171.755 231.427 171.567C232.706 171.38 233.921 170.885 234.968 170.125C243.181 173.327 254.595 180.614 254.985 194.466C255.105 198.669 253.864 202.276 251.463 204.147C248.706 206.291 245.611 205.663 242.469 205.345C241.619 205.258 241.55 206.248 242.325 206.457C245.717 207.375 250.026 207.587 252.804 205.065C260.241 198.308 257.501 176.819 235.741 168.901Z" fill="#030303"/>
<path d="M246.985 191.407C244.555 188.903 237.548 185.819 233.159 186.159C232.412 186.217 232.556 187.011 233.159 187.093C237.946 187.775 242.507 189.57 246.475 192.334C247.147 192.795 247.562 192.003 246.985 191.407Z" fill="#030303"/>
<path d="M234.747 161.437C233.982 161.079 233.982 160.384 233.804 159.662C233.626 158.941 232.87 159.169 232.819 159.816C232.826 160.325 232.98 160.822 233.264 161.246C233.547 161.669 233.948 162.001 234.417 162.201C235.087 162.413 235.492 161.783 234.747 161.437Z" fill="#030303"/>
<path d="M238.195 160.41C239.046 159.825 239.302 157.5 239.519 156.443C239.533 156.359 239.513 156.272 239.465 156.202C239.417 156.131 239.344 156.082 239.26 156.063C239.177 156.045 239.089 156.059 239.016 156.103C238.943 156.147 238.889 156.217 238.866 156.299C238.66 157.415 238.27 158.488 237.711 159.476C237.484 159.774 236.862 158.924 236.59 159.382C236.175 160.079 237.712 160.742 238.195 160.41Z" fill="#030303"/>
<path d="M235.834 153.428C236.382 153.249 236.958 153.178 237.533 153.217C237.66 153.215 237.784 153.171 237.882 153.09C237.981 153.009 238.049 152.897 238.076 152.773C238.103 152.648 238.086 152.518 238.029 152.404C237.972 152.29 237.878 152.198 237.763 152.145C237.358 152.052 236.938 152.046 236.53 152.128C236.123 152.21 235.738 152.378 235.401 152.621C234.645 153.296 235.562 153.564 235.834 153.428Z" fill="#030303"/>
<path d="M236.225 156.673C236.811 156.96 237.669 155.823 237.073 155.237C236.477 154.65 235.644 156.39 236.225 156.673Z" fill="#030303"/>
<path d="M240.132 158.319C240.786 158.625 241.371 157.071 240.879 156.766C240.387 156.462 239.487 158.013 240.132 158.319Z" fill="#030303"/>
<path d="M242.043 153.36C241.558 153.123 240.867 153.644 241.406 154.209C241.66 154.471 241.862 154.78 242 155.118C242.272 155.61 242.961 155.478 242.791 154.515C242.751 154.282 242.665 154.059 242.536 153.86C242.408 153.662 242.24 153.492 242.043 153.36Z" fill="#030303"/>
<path d="M185.397 50.9033C187.347 48.692 199.521 46.0457 203.162 52.6783C203.229 52.8307 203.336 52.9623 203.471 53.0591C203.607 53.1559 203.766 53.2143 203.932 53.2283C204.098 53.2422 204.265 53.2111 204.415 53.1383C204.564 53.0655 204.692 52.9537 204.783 52.8146C209.131 48.1269 218.003 47.2631 222.805 51.0305C223.323 51.4378 223.98 50.9018 223.536 50.3352C219.52 45.2172 208.3 46.4699 204.214 50.6231C200.639 45.528 188.549 45.2049 184.494 50.1147C184.074 50.6246 184.939 51.4225 185.397 50.9033Z" fill="#030303"/>
<path d="M216.573 77.1843C216.487 77.2839 216.44 77.4119 216.442 77.5437C216.445 77.6755 216.495 77.8018 216.585 77.8987C216.674 77.9955 216.796 78.056 216.927 78.0685C217.058 78.0811 217.19 78.0449 217.296 77.9668C222.069 74.3971 228.849 73.6222 233.203 78.365C234.178 79.4278 234.354 80.1552 235.58 78.6452C239.036 74.3925 246.539 75.4155 250.289 78.1537C250.952 78.6361 251.317 77.9745 250.849 77.4232C247.14 73.0402 238.306 73.1765 234.569 77.1C230.034 72.2286 221.097 71.8151 216.573 77.1843Z" fill="#030303"/>
<path d="M177.45 145.734C176.574 148.421 176.265 151.261 176.542 154.074C176.848 155.452 178.138 153.002 179.939 154.074C181.101 154.771 178.47 159.699 175.879 159.255C174.478 159.013 174.868 160.953 177.577 160.367C177.454 161.571 177.593 162.788 177.985 163.934C178.248 164.358 179.118 164.783 178.919 163.186C178.779 162.058 178.861 160.791 178.801 159.653C180.576 158.312 182.197 155.33 181.306 153.624C184.703 151.255 188.77 144.206 183.259 143.976C185.96 142.005 183.259 136.013 179.012 139.229C179.548 135.925 174.223 131.865 171.049 135.89C169.058 129.368 161.094 134.44 164.407 139.908C166.837 143.909 175.026 145.759 177.45 145.734Z" fill="#030303"/>
<path d="M209.983 141.25C209.065 134.971 195.138 131.839 192.997 138.438C190.856 145.037 203.188 146.566 206.96 146.685C206.767 148.687 207.301 150.691 208.463 152.333C208.634 152.639 208.997 152.945 209.354 152.707C210.319 152.048 212.264 151.815 211.835 154.014C211.406 156.214 209.221 156.759 209.287 157.69C209.328 158.269 209.771 158.174 210.492 157.936C210.312 159.702 210.453 161.486 210.908 163.201C211.311 164.151 212.196 164.051 211.996 162.947C211.635 160.93 211.532 158.875 211.689 156.832C212.861 155.482 213.735 153.138 212.538 151.668C219.249 145.284 217.15 136.697 209.983 141.25Z" fill="#030303"/>
<path d="M249.887 149.258C253.632 143.253 242.405 137.954 232.807 140.486C229.898 132.646 218.634 144.35 219.075 163.62C220.822 163.404 222.586 163.364 224.34 163.5C224.002 164.851 225.061 164.701 225.19 164.35C226.018 162.03 226.983 159.761 228.078 157.555C228.174 157.418 228.239 157.261 228.268 157.095C228.297 156.93 228.289 156.761 228.245 156.599C228.202 156.437 228.123 156.286 228.015 156.158C227.906 156.03 227.771 155.927 227.619 155.857C225.377 154.422 229.59 148.69 230.634 152.86C230.847 153.708 234.218 151.679 235.255 148.901C238.586 150.302 246.152 155.253 249.887 149.258Z" fill="#030303"/>
<path d="M242.518 159.068C243.407 157.617 244.093 156.051 244.556 154.413C244.877 153.246 243.956 153.149 243.519 154.413C242.573 157.169 237.473 165.709 234.127 165.972C231.876 166.15 230.269 164.581 228.879 163.136C228.845 163.091 228.802 163.054 228.753 163.026C228.704 162.998 228.65 162.981 228.594 162.975C228.538 162.969 228.482 162.974 228.428 162.99C228.374 163.007 228.324 163.034 228.282 163.07C228.239 163.107 228.204 163.152 228.179 163.202C228.154 163.252 228.139 163.307 228.136 163.363C228.133 163.42 228.142 163.476 228.161 163.528C228.181 163.581 228.211 163.629 228.249 163.67C229.582 165.661 232.098 167.637 234.637 167.179C238.883 168.404 247.758 172.937 252.752 179.43C256.93 175.839 255.642 170.416 250.705 168.5C246.505 166.866 242.704 163.807 242.518 159.068Z" fill="#030303"/>
</svg>
