<svg width="46" height="46" viewBox="0 0 46 46" fill="none" xmlns="http://www.w3.org/2000/svg">
<path d="M37.2597 0.244141H9.13478C4.47487 0.244141 0.697266 4.02174 0.697266 8.68165V36.8068C0.697266 41.4667 4.47487 45.2443 9.13478 45.2443H37.2597C41.9196 45.2443 45.6972 41.4667 45.6972 36.8068V8.68165C45.6972 4.02174 41.9196 0.244141 37.2597 0.244141Z" fill="#141414"/>
<path fill-rule="evenodd" clip-rule="evenodd" d="M17.5723 11.0241C17.5723 9.83034 18.673 8.94068 19.8402 9.19077L29.7782 11.3202C31.3638 11.66 31.7997 13.7161 30.4881 14.6699L24.7995 18.8069C24.358 19.128 23.7986 19.2407 23.2673 19.1157L13.0288 16.7068C12.9553 16.6895 12.8848 16.7453 12.8848 16.8209V29.6532C12.8848 29.7076 12.9222 29.7548 12.9751 29.7673L26.8033 33.0208C26.8768 33.0381 26.9473 32.9823 26.9473 32.9067V23.4576C26.9473 22.8675 27.2252 22.3117 27.6973 21.9577L32.3848 18.4422C33.6208 17.5152 35.3848 18.397 35.3848 19.9422V29.1978C35.3848 30.4371 34.2039 31.3354 33.0096 31.0048L29.908 30.1431C29.7051 30.0867 29.5647 29.902 29.5647 29.6914V28.7189C29.5647 28.4089 29.8602 28.1843 30.1589 28.2672L33.3612 29.1565C33.4359 29.1772 33.5098 29.1211 33.5098 29.0436V19.9422L28.8223 23.4577V33.0547C28.8223 34.2639 27.6948 35.1568 26.5179 34.8799L12.4554 31.5712C11.6084 31.3719 11.0098 30.6162 11.0098 29.7461V16.6729C11.0098 15.4637 12.1373 14.5708 13.3142 14.8477L23.6444 17.2782C23.6776 17.286 23.7125 17.279 23.7401 17.2589L29.173 13.308C29.2549 13.2483 29.2277 13.1198 29.1286 13.0986L19.5891 11.0545C19.5161 11.0389 19.4473 11.0945 19.4473 11.1691V15.099C19.4473 15.2515 19.304 15.3634 19.1561 15.3264L17.9274 15.0192C17.7187 14.967 17.5723 14.7795 17.5723 14.5644V11.0241Z" fill="white"/>
<path fill-rule="evenodd" clip-rule="evenodd" d="M18.975 19.5293C19.1837 19.5815 19.3301 19.769 19.3301 19.984V25.7583L24.1756 27.0265C24.3819 27.0804 24.5257 27.2668 24.5257 27.48V28.3695C24.5257 28.6737 24.2404 28.8974 23.9449 28.8247L18.1683 27.4032C17.7495 27.3 17.4551 26.9243 17.4551 26.4929V19.5245C17.4551 19.3339 17.6342 19.1941 17.8191 19.2403L18.975 19.5293Z" fill="white"/>
</svg>
