<svg xmlns="http://www.w3.org/2000/svg" width="123" height="46" viewBox="0 0 123 46" fill="none">
<rect y="0.5" width="44.9999" height="45.0002" rx="8.43751" fill="#141414"/>
<path fill-rule="evenodd" clip-rule="evenodd" d="M16.875 11.28C16.875 10.0862 17.9757 9.19654 19.1429 9.44663L29.0809 11.5761C30.6665 11.9159 31.1024 13.972 29.7908 14.9258L24.1022 19.0628C23.6607 19.3839 23.1013 19.4966 22.57 19.3716L12.3315 16.9627C12.258 16.9454 12.1875 17.0012 12.1875 17.0768L12.1875 29.9091C12.1875 29.9635 12.2249 30.0107 12.2778 30.0232L26.106 33.2767C26.1795 33.294 26.25 33.2382 26.25 33.1626L26.25 23.7135C26.25 23.1234 26.5279 22.5676 27 22.2136L31.6875 18.6981C32.9235 17.7711 34.6875 18.6529 34.6875 20.1981L34.6875 29.4537C34.6875 30.693 33.5066 31.5913 32.3123 31.2607L29.2107 30.399C29.0078 30.3426 28.8674 30.1579 28.8674 29.9473V28.9748C28.8674 28.6648 29.1629 28.4402 29.4616 28.5231L32.6639 29.4124C32.7386 29.4331 32.8125 29.377 32.8125 29.2995L32.8125 20.1981L28.125 23.7136L28.125 33.3106C28.125 34.5198 26.9975 35.4127 25.8206 35.1358L11.7581 31.8271C10.9111 31.6278 10.3125 30.8721 10.3125 30.002L10.3125 16.9288C10.3125 15.7196 11.44 14.8267 12.6169 15.1036L22.9471 17.5341C22.9803 17.5419 23.0152 17.5349 23.0428 17.5148L28.4757 13.5639C28.5576 13.5042 28.5304 13.3757 28.4313 13.3545L18.8918 11.3104C18.8188 11.2948 18.75 11.3504 18.75 11.425L18.75 15.3549C18.75 15.5074 18.6067 15.6193 18.4588 15.5823L17.2301 15.2751C17.0214 15.2229 16.875 15.0354 16.875 14.8203L16.875 11.28Z" fill="white"/>
<path fill-rule="evenodd" clip-rule="evenodd" d="M18.2777 19.7851C18.4864 19.8373 18.6328 20.0248 18.6328 20.2398V26.0141L23.4783 27.2823C23.6846 27.3362 23.8284 27.5226 23.8284 27.7358V28.6253C23.8284 28.9295 23.5431 29.1532 23.2476 29.0805L17.471 27.659C17.0522 27.5558 16.7578 27.1801 16.7578 26.7487V19.7803C16.7578 19.5897 16.9369 19.4499 17.1218 19.4961L18.2777 19.7851Z" fill="white"/>
<path d="M58.6 31V16.6H60.69V29.03H67.21V31H58.6ZM71.9578 31.3C71.1578 31.3 70.4878 31.1533 69.9478 30.86C69.4078 30.56 68.9978 30.1667 68.7178 29.68C68.4445 29.1867 68.3078 28.6467 68.3078 28.06C68.3078 27.5133 68.4045 27.0333 68.5978 26.62C68.7911 26.2067 69.0778 25.8567 69.4578 25.57C69.8378 25.2767 70.3045 25.04 70.8578 24.86C71.3378 24.72 71.8811 24.5967 72.4878 24.49C73.0945 24.3833 73.7311 24.2833 74.3978 24.19C75.0711 24.0967 75.7378 24.0033 76.3978 23.91L75.6378 24.33C75.6511 23.4833 75.4711 22.8567 75.0978 22.45C74.7311 22.0367 74.0978 21.83 73.1978 21.83C72.6311 21.83 72.1111 21.9633 71.6378 22.23C71.1645 22.49 70.8345 22.9233 70.6478 23.53L68.6978 22.93C68.9645 22.0033 69.4711 21.2667 70.2178 20.72C70.9711 20.1733 71.9711 19.9 73.2178 19.9C74.1845 19.9 75.0245 20.0667 75.7378 20.4C76.4578 20.7267 76.9845 21.2467 77.3178 21.96C77.4911 22.3133 77.5978 22.6867 77.6378 23.08C77.6778 23.4733 77.6978 23.8967 77.6978 24.35V31H75.8478V28.53L76.2078 28.85C75.7611 29.6767 75.1911 30.2933 74.4978 30.7C73.8111 31.1 72.9645 31.3 71.9578 31.3ZM72.3278 29.59C72.9211 29.59 73.4311 29.4867 73.8578 29.28C74.2845 29.0667 74.6278 28.7967 74.8878 28.47C75.1478 28.1433 75.3178 27.8033 75.3978 27.45C75.5111 27.13 75.5745 26.77 75.5878 26.37C75.6078 25.97 75.6178 25.65 75.6178 25.41L76.2978 25.66C75.6378 25.76 75.0378 25.85 74.4978 25.93C73.9578 26.01 73.4678 26.09 73.0278 26.17C72.5945 26.2433 72.2078 26.3333 71.8678 26.44C71.5811 26.54 71.3245 26.66 71.0978 26.8C70.8778 26.94 70.7011 27.11 70.5678 27.31C70.4411 27.51 70.3778 27.7533 70.3778 28.04C70.3778 28.32 70.4478 28.58 70.5878 28.82C70.7278 29.0533 70.9411 29.24 71.2278 29.38C71.5145 29.52 71.8811 29.59 72.3278 29.59ZM86.3045 31.3C84.8645 31.3 83.6379 30.9867 82.6245 30.36C81.6112 29.7267 80.8345 28.8467 80.2945 27.72C79.7612 26.5933 79.4945 25.2867 79.4945 23.8C79.4945 22.3133 79.7612 21.0067 80.2945 19.88C80.8345 18.7533 81.6112 17.8767 82.6245 17.25C83.6379 16.6167 84.8645 16.3 86.3045 16.3C87.9645 16.3 89.3379 16.72 90.4245 17.56C91.5179 18.4 92.2779 19.53 92.7045 20.95L90.5845 21.52C90.3045 20.5133 89.8045 19.7233 89.0845 19.15C88.3712 18.5767 87.4445 18.29 86.3045 18.29C85.2845 18.29 84.4345 18.52 83.7545 18.98C83.0745 19.44 82.5612 20.0833 82.2145 20.91C81.8745 21.7367 81.7045 22.7 81.7045 23.8C81.6979 24.9 81.8645 25.8633 82.2045 26.69C82.5512 27.5167 83.0645 28.16 83.7445 28.62C84.4312 29.08 85.2845 29.31 86.3045 29.31C87.4445 29.31 88.3712 29.0233 89.0845 28.45C89.8045 27.87 90.3045 27.08 90.5845 26.08L92.7045 26.65C92.2779 28.07 91.5179 29.2 90.4245 30.04C89.3379 30.88 87.9645 31.3 86.3045 31.3ZM95.1039 31V16.3H97.1939V31H95.1039ZM104.987 31.3C103.914 31.3 102.97 31.0667 102.157 30.6C101.35 30.1267 100.72 29.47 100.267 28.63C99.8202 27.7833 99.5969 26.8033 99.5969 25.69C99.5969 24.51 99.8169 23.4867 100.257 22.62C100.704 21.7533 101.324 21.0833 102.117 20.61C102.91 20.1367 103.834 19.9 104.887 19.9C105.987 19.9 106.924 20.1567 107.697 20.67C108.47 21.1767 109.047 21.9 109.427 22.84C109.814 23.78 109.967 24.8967 109.887 26.19H107.797V25.43C107.784 24.1767 107.544 23.25 107.077 22.65C106.617 22.05 105.914 21.75 104.967 21.75C103.92 21.75 103.134 22.08 102.607 22.74C102.08 23.4 101.817 24.3533 101.817 25.6C101.817 26.7867 102.08 27.7067 102.607 28.36C103.134 29.0067 103.894 29.33 104.887 29.33C105.54 29.33 106.104 29.1833 106.577 28.89C107.057 28.59 107.43 28.1633 107.697 27.61L109.747 28.26C109.327 29.2267 108.69 29.9767 107.837 30.51C106.984 31.0367 106.034 31.3 104.987 31.3ZM101.137 26.19V24.56H108.847V26.19H101.137ZM116.82 31.3C115.74 31.3 114.804 31.0567 114.01 30.57C113.217 30.0833 112.604 29.4133 112.17 28.56C111.744 27.7 111.53 26.71 111.53 25.59C111.53 24.4633 111.75 23.4733 112.19 22.62C112.63 21.76 113.247 21.0933 114.04 20.62C114.834 20.14 115.76 19.9 116.82 19.9C117.9 19.9 118.837 20.1433 119.63 20.63C120.424 21.1167 121.037 21.7867 121.47 22.64C121.904 23.4933 122.12 24.4767 122.12 25.59C122.12 26.7167 121.9 27.71 121.46 28.57C121.027 29.4233 120.414 30.0933 119.62 30.58C118.827 31.06 117.894 31.3 116.82 31.3ZM116.82 29.33C117.854 29.33 118.624 28.9833 119.13 28.29C119.644 27.59 119.9 26.69 119.9 25.59C119.9 24.4633 119.64 23.5633 119.12 22.89C118.607 22.21 117.84 21.87 116.82 21.87C116.12 21.87 115.544 22.03 115.09 22.35C114.637 22.6633 114.3 23.1 114.08 23.66C113.86 24.2133 113.75 24.8567 113.75 25.59C113.75 26.7233 114.01 27.63 114.53 28.31C115.05 28.99 115.814 29.33 116.82 29.33Z" fill="#101010"/>
</svg>
