<svg width="48" height="48" viewBox="0 0 48 48" fill="none" xmlns="http://www.w3.org/2000/svg">
<path d="M27.875 3.0332L27.8557 12.3144L27.8363 21.5956L26.9468 19.4411V19.4355L25.793 40.0973C26.9274 42.8375 27.5334 44.3015 27.5398 44.307C27.5463 44.3125 28.1908 44.3457 28.9708 44.3788C31.33 44.4783 34.2564 44.6937 36.4803 44.9313C36.9959 44.9865 37.4343 45.0141 37.4665 44.992C37.4987 44.9699 37.5052 35.523 37.4987 23.9933L37.4794 3.0332H27.875Z" fill="url(#paint0_linear_607_92512)"/>
<path d="M10.5 3.00552V23.9878C10.5 35.5285 10.5129 44.981 10.5322 44.9976C10.5516 45.0142 11.3831 44.9424 12.3887 44.8485C13.3942 44.7545 14.7801 44.633 15.4698 44.5833C16.5269 44.5059 19.6983 44.3347 20.0593 44.3291C20.1689 44.3291 20.1753 43.8596 20.1882 35.4401L20.2075 26.5511L20.9746 28.4074C21.0906 28.6947 21.1293 28.7831 21.2453 29.0648L22.3991 8.40853C22.1542 7.81741 22.2831 8.12678 22.0059 7.45279C21.0648 5.17115 20.2656 3.24308 20.2333 3.15469L20.1689 3H10.5V3.00552Z" fill="url(#paint1_linear_607_92512)"/>
<path d="M10.5 3.00552L20.2011 26.5676V26.5565L20.9682 28.4128C25.229 38.7491 27.5173 44.2957 27.5302 44.3068C27.5366 44.3123 28.1812 44.3455 28.9612 44.3786C31.3204 44.4781 34.2469 44.6935 36.4707 44.9311C36.9799 44.9863 37.4247 45.0139 37.4505 44.9918L27.8331 21.59V21.5955L26.9436 19.441C26.0734 17.3361 25.4933 15.9274 21.9931 7.45276C21.052 5.17113 20.2527 3.24308 20.2205 3.15469L20.156 3H15.328L10.5 3.00552Z" fill="#E30A17"/>
<defs>
<linearGradient id="paint0_linear_607_92512" x1="41.8306" y1="34.4115" x2="26.4786" y2="41.1808" gradientUnits="userSpaceOnUse">
<stop stop-color="#B20610"/>
<stop offset="0.255959" stop-color="#B20610"/>
<stop offset="1" stop-color="#590004"/>
</linearGradient>
<linearGradient id="paint1_linear_607_92512" x1="5.83845" y1="12.206" x2="22.4416" y2="4.9695" gradientUnits="userSpaceOnUse">
<stop stop-color="#B20610"/>
<stop offset="0.255959" stop-color="#B20610"/>
<stop offset="1" stop-color="#590004"/>
</linearGradient>
</defs>
</svg>
