<svg width="33" height="32" viewBox="0 0 33 32" fill="none" xmlns="http://www.w3.org/2000/svg">
<path d="M2.5 12.1333C2.5 8.58633 2.5 6.81283 3.19029 5.45806C3.79749 4.26637 4.76637 3.29749 5.95806 2.69029C7.31283 2 9.08633 2 12.6333 2H20.3667C23.9137 2 25.6872 2 27.0419 2.69029C28.2336 3.29749 29.2025 4.26637 29.8097 5.45806C30.5 6.81283 30.5 8.58633 30.5 12.1333V19.8667C30.5 23.4137 30.5 25.1872 29.8097 26.5419C29.2025 27.7336 28.2336 28.7025 27.0419 29.3097C25.6872 30 23.9137 30 20.3667 30H12.6333C9.08633 30 7.31283 30 5.95806 29.3097C4.76637 28.7025 3.79749 27.7336 3.19029 26.5419C2.5 25.1872 2.5 23.4137 2.5 19.8667V12.1333Z" fill="#E6001F"/>
<path d="M7.5 23C7.5 23 13.7207 8.00393 13.7059 8C13.7059 8 13.7059 8 13.7059 8H13.7059H18.4301L25.5 23L20.1601 23C20.1641 23.0079 16.1563 13.7963 16.106 13.7037C16.0972 13.784 13.4484 19.9491 13.4164 19.9567H16.271C16.258 19.9724 17.5122 22.9714 17.5122 23L7.5 23Z" fill="white"/>
</svg>
