<svg width="24" height="24" viewBox="0 0 24 24" fill="none" xmlns="http://www.w3.org/2000/svg">
<path d="M9 5.25C7.34314 5.25 6 6.59314 6 8.25V9.84452C4.70608 10.1775 3.75 11.3521 3.75 12.75C3.75 13.8613 4.3539 14.83 5.25 15.3484V17.25V18.75H6.75V18H17.25V18.75H18.75V17.25V15.3484C19.6461 14.83 20.25 13.8613 20.25 12.75C20.25 11.3521 19.2939 10.1775 18 9.84452V8.25C18 6.59314 16.6568 5.25 15 5.25H9ZM16.5 9.84452C15.2061 10.1775 14.25 11.3521 14.25 12.75H9.75C9.75 11.3521 8.79392 10.1775 7.5 9.84452V8.25C7.5 7.42157 8.17157 6.75 9 6.75H15C15.8285 6.75 16.5 7.42157 16.5 8.25V9.84452ZM9.75 14.25H14.25V15H15.75V12.75C15.75 11.9215 16.4215 11.25 17.25 11.25C18.0785 11.25 18.75 11.9215 18.75 12.75C18.75 13.402 18.3337 13.9586 17.7501 14.1649C17.4504 14.2708 17.25 14.5541 17.25 14.872V16.5H6.75V14.872C6.75 14.5541 6.54963 14.2708 6.24994 14.1649C5.66632 13.9586 5.25 13.402 5.25 12.75C5.25 11.9215 5.92157 11.25 6.75 11.25C7.57843 11.25 8.25 11.9215 8.25 12.75V15H9.75V14.25Z" fill="#5C5C5C"/>
</svg>
