<svg width="24" height="24" viewBox="0 0 24 24" fill="none" xmlns="http://www.w3.org/2000/svg">
<path d="M7.5 5.7001V3.0001C7.5 2.7614 7.59482 2.53248 7.7636 2.3637C7.93239 2.19492 8.1613 2.1001 8.4 2.1001H15.6C15.8387 2.1001 16.0676 2.19492 16.2364 2.3637C16.4052 2.53248 16.5 2.7614 16.5 3.0001V5.7001H20.1C20.3387 5.7001 20.5676 5.79492 20.7364 5.9637C20.9052 6.13248 21 6.3614 21 6.6001V19.2001C21 19.4388 20.9052 19.6677 20.7364 19.8365C20.5676 20.0053 20.3387 20.1001 20.1 20.1001H3.9C3.66131 20.1001 3.43239 20.0053 3.2636 19.8365C3.09482 19.6677 3 19.4388 3 19.2001V6.6001C3 6.3614 3.09482 6.13248 3.2636 5.9637C3.43239 5.79492 3.66131 5.7001 3.9 5.7001H7.5ZM9.3 12.9001H4.8V18.3001H19.2V12.9001H14.7V15.6001H9.3V12.9001ZM19.2 7.5001H4.8V11.1001H9.3V9.3001H14.7V11.1001H19.2V7.5001ZM11.1 11.1001V13.8001H12.9V11.1001H11.1ZM9.3 3.9001V5.7001H14.7V3.9001H9.3Z" fill="#5C5C5C"/>
</svg>
