<svg width="16" height="16" viewBox="0 0 16 16" fill="none" xmlns="http://www.w3.org/2000/svg">
<path d="M11 2.60039H13.4C13.5591 2.60039 13.7117 2.6636 13.8243 2.77613C13.9368 2.88865 14 3.04126 14 3.20039V12.8004C14 12.9595 13.9368 13.1121 13.8243 13.2247C13.7117 13.3372 13.5591 13.4004 13.4 13.4004H2.6C2.44087 13.4004 2.28826 13.3372 2.17574 13.2247C2.06321 13.1121 2 12.9595 2 12.8004V3.20039C2 3.04126 2.06321 2.88865 2.17574 2.77613C2.28826 2.6636 2.44087 2.60039 2.6 2.60039H5V1.40039H6.2V2.60039H9.8V1.40039H11V2.60039ZM9.8 3.80039H6.2V5.00039H5V3.80039H3.2V6.20039H12.8V3.80039H11V5.00039H9.8V3.80039ZM12.8 7.40039H3.2V12.2004H12.8V7.40039Z" fill="#5C5C5C"/>
</svg>
