<svg width="20" height="20" viewBox="0 0 20 20" fill="none" xmlns="http://www.w3.org/2000/svg">
<path d="M12.5515 16.75V11.5255H14.3013L14.563 9.4945H12.5515V8.1985C12.5515 7.6105 12.715 7.20925 13.558 7.20925H14.6335V5.39275C14.1128 5.33751 13.5896 5.31072 13.066 5.3125C11.5157 5.3125 10.4545 6.259 10.4545 7.9975V9.4945H8.701V11.5255H10.4545V16.75H4C3.80109 16.75 3.61032 16.671 3.46967 16.5303C3.32902 16.3897 3.25 16.1989 3.25 16V4C3.25 3.80109 3.32902 3.61032 3.46967 3.46967C3.61032 3.32902 3.80109 3.25 4 3.25H16C16.1989 3.25 16.3897 3.32902 16.5303 3.46967C16.671 3.61032 16.75 3.80109 16.75 4V16C16.75 16.1989 16.671 16.3897 16.5303 16.5303C16.3897 16.671 16.1989 16.75 16 16.75H12.5515Z" fill="#335CFF"/>
</svg>
