<svg width="21" height="20" viewBox="0 0 21 20" fill="none" xmlns="http://www.w3.org/2000/svg">
<path d="M6.5 5.5V3.25C6.5 3.05109 6.57902 2.86032 6.71967 2.71967C6.86032 2.57902 7.05109 2.5 7.25 2.5H16.25C16.4489 2.5 16.6397 2.57902 16.7803 2.71967C16.921 2.86032 17 3.05109 17 3.25V13.75C17 13.9489 16.921 14.1397 16.7803 14.2803C16.6397 14.421 16.4489 14.5 16.25 14.5H14V16.75C14 17.164 13.6625 17.5 13.2448 17.5H4.25525C4.15635 17.5006 4.0583 17.4816 3.96674 17.4442C3.87519 17.4068 3.79192 17.3517 3.72174 17.282C3.65156 17.2123 3.59584 17.1294 3.55779 17.0381C3.51974 16.9468 3.5001 16.8489 3.5 16.75L3.50225 6.25C3.50225 5.836 3.83975 5.5 4.2575 5.5H6.5ZM5.00225 7L5 16H12.5V7H5.00225ZM8 5.5H14V13H15.5V4H8V5.5Z" fill="#5C5C5C"/>
</svg>
