<svg width="21" height="20" viewBox="0 0 21 20" fill="none" xmlns="http://www.w3.org/2000/svg">
<path d="M3 17.5C3 15.9087 3.63214 14.3826 4.75736 13.2574C5.88258 12.1321 7.4087 11.5 9 11.5C10.5913 11.5 12.1174 12.1321 13.2426 13.2574C14.3679 14.3826 15 15.9087 15 17.5H13.5C13.5 16.3065 13.0259 15.1619 12.182 14.318C11.3381 13.4741 10.1935 13 9 13C7.80653 13 6.66193 13.4741 5.81802 14.318C4.97411 15.1619 4.5 16.3065 4.5 17.5H3ZM9 10.75C6.51375 10.75 4.5 8.73625 4.5 6.25C4.5 3.76375 6.51375 1.75 9 1.75C11.4862 1.75 13.5 3.76375 13.5 6.25C13.5 8.73625 11.4862 10.75 9 10.75ZM9 9.25C10.6575 9.25 12 7.9075 12 6.25C12 4.5925 10.6575 3.25 9 3.25C7.3425 3.25 6 4.5925 6 6.25C6 7.9075 7.3425 9.25 9 9.25ZM15.213 12.0273C16.267 12.5019 17.1615 13.2709 17.7889 14.2418C18.4164 15.2126 18.7501 16.344 18.75 17.5H17.25C17.2502 16.633 16.9999 15.7844 16.5293 15.0562C16.0587 14.328 15.3878 13.7512 14.5972 13.3953L15.2123 12.0273H15.213ZM14.697 3.55975C15.4526 3.87122 16.0987 4.40015 16.5533 5.07942C17.0078 5.75869 17.2503 6.55768 17.25 7.375C17.2503 8.40425 16.8658 9.39642 16.1719 10.1566C15.478 10.9168 14.525 11.3901 13.5 11.4835V9.97375C14.0557 9.89416 14.5713 9.63851 14.971 9.24434C15.3707 8.85017 15.6335 8.33824 15.7209 7.7837C15.8082 7.22916 15.7155 6.66122 15.4563 6.16327C15.1971 5.66531 14.7851 5.26356 14.2808 5.017L14.697 3.55975Z" fill="#171717"/>
</svg>
