<svg width="18" height="18" viewBox="0 0 18 18" fill="none" xmlns="http://www.w3.org/2000/svg">
<path fill-rule="evenodd" clip-rule="evenodd" d="M9 14.625C12.1066 14.625 14.625 12.1066 14.625 9C14.625 5.8934 12.1066 3.375 9 3.375C5.8934 3.375 3.375 5.8934 3.375 9C3.375 12.1066 5.8934 14.625 9 14.625ZM10.0043 11.8877L10.0941 11.5205C10.0476 11.5424 9.97263 11.5673 9.86984 11.5957C9.76677 11.6241 9.67401 11.6386 9.59248 11.6386C9.41883 11.6386 9.29657 11.6101 9.22559 11.5529C9.15512 11.4957 9.11998 11.3881 9.11998 11.2304C9.11998 11.168 9.13058 11.0749 9.15276 10.953C9.17425 10.8304 9.19897 10.7214 9.22645 10.626L9.56177 9.43883C9.59461 9.32988 9.61714 9.21009 9.62924 9.07937C9.64163 8.94892 9.64739 8.85766 9.64739 8.80586C9.64739 8.55552 9.55964 8.35237 9.38409 8.19566C9.20853 8.03906 8.95854 7.96076 8.63457 7.96076C8.45429 7.96076 8.26369 7.99279 8.06198 8.0568C7.86027 8.12064 7.6494 8.19756 7.42879 8.28738L7.33873 8.65485C7.40447 8.63054 7.48277 8.60438 7.57438 8.5773C7.66559 8.55034 7.75506 8.5364 7.84212 8.5364C8.01987 8.5364 8.13959 8.5667 8.20233 8.62639C8.26508 8.68625 8.29659 8.79273 8.29659 8.94495C8.29659 9.02912 8.28663 9.12263 8.26594 9.22427C8.24555 9.32654 8.22008 9.43468 8.19012 9.54882L7.85336 10.7408C7.8234 10.866 7.8015 10.9781 7.78773 11.0776C7.77408 11.177 7.76751 11.2745 7.76751 11.3694C7.76751 11.6143 7.85802 11.8163 8.03899 11.9756C8.21996 12.1344 8.4737 12.2143 8.79992 12.2143C9.01235 12.2143 9.19879 12.1865 9.35925 12.1307C9.51954 12.075 9.73479 11.9941 10.0043 11.8877ZM9.94451 7.06518C10.1012 6.91993 10.1791 6.74328 10.1791 6.53644C10.1791 6.33007 10.1013 6.15307 9.94451 6.00598C9.78826 5.85929 9.59991 5.78571 9.37971 5.78571C9.15881 5.78571 8.96972 5.85912 8.81196 6.00598C8.65421 6.15307 8.57516 6.33001 8.57516 6.53644C8.57516 6.74328 8.65421 6.91988 8.81196 7.06518C8.97 7.21095 9.15875 7.28389 9.37971 7.28389C9.59997 7.28389 9.78826 7.21095 9.94451 7.06518Z" fill="#D1D1D1"/>
</svg>
