<svg width="24" height="24" viewBox="0 0 24 24" fill="none" xmlns="http://www.w3.org/2000/svg">
<path d="M15.75 3.90625L16.7391 5.76086L18.5937 6.75L16.7391 7.73913L15.75 9.59375L14.7609 7.73913L12.9063 6.75L14.7609 5.76086L15.75 3.90625ZM11 10L14.75 12L11 14L9 17.75L7 14L3.25 12L7 10L9 6.25L11 10ZM11.5625 12L9.8913 11.1087L9 9.4375L8.10869 11.1087L6.4375 12L8.10869 12.8913L9 14.5625L9.8913 12.8913L11.5625 12ZM17.75 15.25L16.5 12.9062L15.25 15.25L12.9063 16.5L15.25 17.75L16.5 20.0937L17.75 17.75L20.0937 16.5L17.75 15.25Z" fill="#5C5C5C"/>
</svg>
