<svg width="28" height="28" viewBox="0 0 28 28" fill="none" xmlns="http://www.w3.org/2000/svg">
<path d="M18.3754 4.55713L19.5293 6.72085L21.693 7.87484L19.5293 9.02883L18.3754 11.1925L17.2213 9.02883L15.0576 7.87484L17.2213 6.72085L18.3754 4.55713ZM12.8336 11.6665L17.2086 13.9999L12.8336 16.3331L10.5003 20.7081L8.16699 16.3331L3.79199 13.9999L8.16699 11.6665L10.5003 7.2915L12.8336 11.6665ZM13.4899 13.9999L11.5402 12.96L10.5003 11.0103L9.46047 12.96L7.51074 13.9999L9.46047 15.0397L10.5003 16.9894L11.5402 15.0397L13.4899 13.9999ZM20.7086 17.7915L19.2504 15.0571L17.792 17.7915L15.0576 19.2499L17.792 20.7081L19.2504 23.4425L20.7086 20.7081L23.443 19.2499L20.7086 17.7915Z" fill="#335CFF"/>
</svg>
