<svg width="24" height="24" viewBox="0 0 24 24" fill="none" xmlns="http://www.w3.org/2000/svg">
<path d="M5.99693 4.14391C6.59726 3.92969 7.24845 3.90265 7.86449 4.06633C8.48052 4.23002 9.03239 4.57675 9.44721 5.0607C9.86203 5.54466 10.1203 6.14307 10.1878 6.77689C10.2554 7.4107 10.129 8.0501 9.82553 8.61061L19.4636 18.2496L18.191 19.5222L8.55203 9.88321C7.99139 10.1855 7.35232 10.3109 6.71903 10.2428C6.08573 10.1746 5.48793 9.91624 5.00442 9.50162C4.5209 9.08699 4.17435 8.5356 4.01044 7.9201C3.84653 7.30461 3.87296 6.65389 4.08623 6.05371L6.09953 8.06701C6.22406 8.19595 6.37303 8.29879 6.53773 8.36955C6.70244 8.4403 6.87958 8.47754 7.05884 8.4791C7.23809 8.48065 7.41585 8.4465 7.58176 8.37862C7.74767 8.31074 7.89841 8.2105 8.02516 8.08374C8.15192 7.95699 8.25216 7.80626 8.32004 7.64035C8.38792 7.47444 8.42207 7.29667 8.42052 7.11742C8.41896 6.93817 8.38172 6.76102 8.31096 6.59631C8.24021 6.43161 8.13737 6.28264 8.00843 6.15811L5.99603 4.14301L5.99693 4.14391ZM15.3272 5.83951L18.191 4.24831L19.4636 5.52091L17.8724 8.38471L16.2812 8.70331L14.3732 10.6122L13.0997 9.33961L15.0086 7.43071L15.3272 5.83951ZM9.28103 13.1583L10.5536 14.4309L5.78093 19.2036C5.61866 19.3663 5.40028 19.4608 5.17057 19.4677C4.94087 19.4746 4.71723 19.3933 4.54551 19.2406C4.37379 19.0879 4.267 18.8752 4.24704 18.6463C4.22707 18.4174 4.29544 18.1895 4.43813 18.0093L4.50833 17.931L9.28103 13.1583Z" fill="#5C5C5C"/>
</svg>
